<svg width="154" height="154" viewBox="0 0 154 154" fill="none" xmlns="http://www.w3.org/2000/svg">
<path d="M69.9956 82.6022L70.6712 81.412L69.4649 80.7657L58.9269 75.1197C58.8013 75.0524 58.7803 74.881 58.886 74.7855L79.1734 56.4468C79.6024 56.059 80.1955 55.9086 80.7575 56.0451L93.4427 59.1263C93.4996 59.1402 93.5271 59.1621 93.5442 59.1807C93.5654 59.2038 93.5854 59.2393 93.5946 59.2848C93.6038 59.3304 93.5993 59.3714 93.5884 59.4017C93.5796 59.4264 93.5623 59.4579 93.515 59.4931L73.7552 74.1913L71.4375 75.9153L74.2522 76.5643L88.3528 79.8158C88.4166 79.8305 88.4443 79.8543 88.4603 79.8723C88.4814 79.8961 88.5018 79.9341 88.5098 79.9836C88.5178 80.0332 88.5103 80.0757 88.4978 80.1048C88.4882 80.127 88.4694 80.1583 88.4135 80.1923L63.0555 95.6104C62.9819 95.6552 62.9436 95.651 62.9265 95.6485C62.8964 95.644 62.8501 95.6258 62.8051 95.5822C62.7602 95.5387 62.7406 95.4929 62.7353 95.4629C62.7322 95.4459 62.7269 95.4078 62.7695 95.3328L69.9956 82.6022Z" stroke="#FCFF5B" stroke-width="2.67109" stroke-linejoin="round"/>
<g filter="url(#filter0_f_62_2941)">
<circle cx="77" cy="77" r="25" fill="#FCFF5B" fill-opacity="0.25"/>
</g>
<defs>
<filter id="filter0_f_62_2941" x="0.668957" y="0.668957" width="152.662" height="152.662" filterUnits="userSpaceOnUse" color-interpolation-filters="sRGB">
<feFlood flood-opacity="0" result="BackgroundImageFix"/>
<feBlend mode="normal" in="SourceGraphic" in2="BackgroundImageFix" result="shape"/>
<feGaussianBlur stdDeviation="25.6655" result="effect1_foregroundBlur_62_2941"/>
</filter>
</defs>
</svg>
