<svg width="80" height="80" viewBox="0 0 80 80" fill="none" xmlns="http://www.w3.org/2000/svg">
<path d="M31.0455 47.0285H49.14M31.0455 53.0216H49.14M43.5724 29.3486C42.7557 28.9932 41.4091 28.6227 40.1372 28.5871M36.1392 38.5781C37.0984 39.0426 38.4864 39.4401 39.7818 39.4679M40.1372 28.5871C38.4422 28.5396 36.8796 29.0868 36.8796 31.0567C36.8796 34.9522 43.2467 33.0045 43.2467 36.5404C43.2467 38.813 41.6061 39.507 39.7818 39.4679M40.1372 28.5871C40.1372 28.3573 40.1372 27.2011 40.1372 26.6517M39.7818 39.4679V41.5147M24.708 20.7484L26.5929 18.8068C27.3653 18.0112 28.6383 17.9982 29.4267 18.7778L30.5614 19.9C31.3147 20.6448 32.5188 20.6709 33.3036 19.9595L34.78 18.6212C35.5606 17.9136 36.7568 17.9351 37.5115 18.6702L38.7186 19.8461C39.5037 20.6108 40.7588 20.5989 41.5292 19.8194L42.4476 18.89C43.2628 18.0652 44.6049 18.1093 45.4036 18.9501C46.6213 20.232 47.9594 21.4935 48.2219 21.2279C48.4817 20.9651 49.748 19.7775 50.9101 18.6928C51.7032 17.9526 52.9424 17.9845 53.698 18.7629L55.6256 20.7484V60.2434L53.5407 62.1439C52.8408 62.7819 51.7887 62.8398 51.023 62.2824L49.3754 61.083C48.6855 60.5809 47.7527 60.5731 47.0546 61.0636L45.1696 62.3882C44.4499 62.8939 43.4839 62.8685 42.7917 62.3256L41.3451 61.1909C40.6331 60.6323 39.6342 60.6232 38.912 61.1685L37.3286 62.3642C36.6374 62.8861 35.6884 62.9024 34.9798 62.4044L33.1025 61.0853C32.3895 60.5843 31.4338 60.6041 30.7421 61.1343L29.179 62.3325C28.4771 62.8706 27.5047 62.8822 26.7901 62.3611L24.708 60.8427V20.7484Z" stroke="#FCFF5B" stroke-width="2.67109" stroke-linecap="round" stroke-linejoin="round"/>
</svg>
