<svg width="80" height="80" viewBox="0 0 80 80" fill="none" xmlns="http://www.w3.org/2000/svg">
<path d="M45.9954 30.8432C44.7719 30.3107 42.7548 29.7555 40.8493 29.7021M34.8604 44.6722C36.2972 45.3683 38.3765 45.9638 40.317 46.0055M40.8493 29.7021C38.3102 29.631 35.9694 30.4509 35.9694 33.4025C35.9694 39.2394 45.5074 36.3209 45.5074 41.6191C45.5074 45.0242 43.0498 46.0641 40.317 46.0055M40.8493 29.7021C40.8493 29.3578 40.8493 27.6254 40.8493 26.8022M40.317 46.0055V49.0724" stroke="#FCFF5B" stroke-width="2.67109" stroke-linecap="round" stroke-linejoin="round"/>
<path d="M60.9843 43.6135C61.5886 41.1742 61.7428 38.5802 61.3659 35.9395C59.7961 24.9417 49.6081 17.2989 38.6104 18.8686C27.6127 20.4384 19.9698 30.6264 21.5396 41.6241C21.9165 44.2648 22.7903 46.7121 24.0529 48.8849" stroke="#FCFF5B" stroke-width="2.67109" stroke-linecap="round" stroke-linejoin="round"/>
<path d="M31.4082 54.197L40.2491 62.9011L52.8209 50.6885L62.6988 60.5664M62.6988 60.5664V51.5865M62.6988 60.5664H53.7189" stroke="#FCFF5B" stroke-width="2.67109" stroke-linecap="round" stroke-linejoin="round"/>
</svg>
