<svg width="80" height="80" viewBox="0 0 80 80" fill="none" xmlns="http://www.w3.org/2000/svg">
<path d="M20.7012 40.5025C23.8659 39.7481 33.2744 37.596 35.7429 35.0231C38.2115 32.4501 40.0945 28.551 40.7275 26.9231C40.9648 25.3348 42.0804 22.2775 44.6439 22.7539C47.8482 23.3495 47.1389 29.6893 46.7801 30.9731C46.3038 32.6775 45.1582 34.0701 44.6439 35.0231H56.2744C57.3821 34.8642 59.5974 35.1422 59.5974 37.5245C59.5974 39.9069 56.2744 40.5025 54.6129 40.5025C55.9184 40.4628 58.5531 40.9075 58.648 43.0039C58.743 45.1004 55.2854 46.1804 53.5448 46.4584C54.7316 46.2201 57.1764 46.4345 57.4612 49.1981C57.746 51.9616 54.1778 52.5731 52.358 52.5334C53.6635 52.3348 56.2744 52.581 56.2744 55.1539C56.2744 57.7269 53.6635 58.5289 52.358 58.6083H32.0254" stroke="#FCFF5B" stroke-width="2.67109" stroke-linecap="round" stroke-linejoin="round"/>
</svg>
