<svg width="351" height="120" viewBox="0 0 351 120" fill="none" xmlns="http://www.w3.org/2000/svg">
<path fill-rule="evenodd" clip-rule="evenodd" d="M169.695 54.2501L227.119 2.25661C229.261 0.316643 232.223 -0.435747 235.03 0.247103L270.935 8.983C274.526 9.85673 275.469 14.5314 272.503 16.7406L216.573 58.4127L256.485 67.6312C260.298 68.512 261.115 73.5875 257.771 75.6239L185.996 119.337C182.151 121.679 177.714 117.365 179.935 113.446L200.388 77.3518L170.561 61.3443C167.9 59.9163 167.456 56.2778 169.695 54.2501ZM204.58 76.1384C204.906 77.2697 204.763 78.485 204.183 79.5091L183.729 115.603L255.505 71.8897L215.593 62.6712C213.936 62.2885 212.652 60.976 212.303 59.3086C211.954 57.6413 212.605 55.9229 213.969 54.9062L269.899 13.2341L269.902 13.2289L234 4.49389C232.597 4.15246 231.116 4.52865 230.044 5.49864L172.621 57.4921L202.449 73.4995C203.485 74.0557 204.254 75.0071 204.58 76.1384Z" fill="#FCFF5B"/>
<path d="M8.37698 51.9266H0V32.9066H8.37698V20.601C8.37698 11.2306 14.5213 4.93739 23.8745 4.93739H57.2439V4.79705H77.6275V102.832H57.2439V25.2161H32.9506C29.1809 25.2161 28.7622 27.3137 28.7622 30.2505V32.9066H45.2357V51.9266H28.7622V102.832H8.37698V51.9266Z" fill="#FCFF5B"/>
<path fill-rule="evenodd" clip-rule="evenodd" d="M112.951 104.231C100.107 104.231 90.4734 95.0011 89.7758 84.2316C88.9381 73.4639 96.4774 62.4152 110.299 61.2969L138.082 58.7798L137.944 57.6614C137.663 53.3256 132.218 51.3683 125.098 50.9488C115.604 50.5292 102.48 52.9061 98.1528 55.0038L93.4053 38.7819C100.804 34.7252 113.37 31.5092 123.703 31.5092C145.902 31.5092 158.607 40.1793 158.607 59.8979V102.832H138.222V94.0215C132.358 99.3352 124.819 104.231 112.951 104.231ZM118.815 75.0017C111.556 75.9811 108.763 78.4984 108.763 81.5756C108.763 84.7916 111.835 87.5879 117.699 87.5879C128.589 87.5879 137.803 78.7775 138.222 75.142V72.3456L118.815 75.0017Z" fill="#FCFF5B"/>
<path d="M285.239 102.832V4.93739H305.624V42.4174C306.181 40.7392 311.767 31.5092 325.17 31.5092C337.875 31.5092 351 39.7598 351 59.7592V102.832H330.615V66.4719C330.615 56.6819 327.683 50.2484 318.328 50.2484C307.997 50.2484 305.624 57.8001 305.624 65.352V102.832H285.239Z" fill="#FCFF5B"/>
</svg>
