<svg width="240" height="240" viewBox="0 0 240 240" fill="none" xmlns="http://www.w3.org/2000/svg">
<path d="M143.325 31.4863L150.704 1.22516L144.248 0L136.869 30.2605L143.325 31.4863Z" fill="#FCFF5B"/>
<path fill-rule="evenodd" clip-rule="evenodd" d="M124.919 21.3009L124.575 21.2991C124.47 22.5805 124.071 23.8601 123.375 25.1387C122.679 26.4181 121.6 27.4871 120.134 28.3453C118.67 29.2041 116.822 29.6288 114.591 29.62C111.835 29.6086 109.712 29.0183 108.226 27.8493C106.738 26.6802 106 25.0832 106.01 23.0567C106.021 20.7613 106.947 19.0738 108.791 17.9936C110.634 16.9127 113.13 16.3788 116.281 16.3914C119.037 16.4029 121.809 16.6081 124.596 17.0061L124.6 16.2013C124.575 14.5924 124.024 13.375 122.946 12.5514C121.866 11.7271 120.326 11.3107 118.324 11.3029C115.338 11.2905 112.382 11.8591 109.456 13.0106L108.89 8.0452C110.304 7.45387 111.882 7.00637 113.622 6.70057C115.362 6.39548 117.135 6.2446 118.94 6.25221C123.107 6.27014 126.196 7.11003 128.205 8.77254C130.215 10.4343 131.213 12.7415 131.199 15.6924L131.133 29.0614L126.555 29.0424L124.919 21.3009ZM112.71 21.8318C112.705 22.845 113.12 23.6299 113.953 24.185C114.788 24.7393 115.926 25.0194 117.37 25.0252C119.241 25.0329 120.876 24.5481 122.275 23.5702C123.674 22.5923 124.461 21.0905 124.635 19.0636L124.637 18.7059C122.341 18.5175 120.438 18.4204 118.929 18.4145C116.894 18.4059 115.351 18.6901 114.298 19.2678C113.244 19.8447 112.715 20.6996 112.71 21.8318Z" fill="#FCFF5B"/>
<path d="M97.8509 13.9041C96.6 13.7464 95.28 13.7154 93.8908 13.8132C92.5008 13.9102 91.1774 14.1292 89.9196 14.4707C87.3739 15.1622 85.5679 16.2593 84.504 17.7615C83.4401 19.2636 83.2648 21.0998 83.9797 23.2706C84.6938 25.4408 85.9484 26.8891 87.7458 27.6142C89.5424 28.3393 91.7151 28.3565 94.2616 27.665C95.5821 27.3066 96.8439 26.825 98.0485 26.218C99.2539 25.6103 100.314 24.9333 101.233 24.1859L103.114 28.8083C102.217 29.5185 101.117 30.1834 99.8137 30.8016C98.5106 31.4198 97.0728 31.9421 95.5002 32.3692C91.1617 33.5474 87.4007 33.5411 84.218 32.3512C81.0361 31.162 78.8332 28.7121 77.6119 24.9987C76.3913 21.2859 76.7505 18.1396 78.6933 15.5583C80.6354 12.9784 83.7756 11.0983 88.1149 9.92081C91.2584 9.06733 94.102 8.80925 96.6449 9.14508L97.8509 13.9041Z" fill="#FCFF5B"/>
<path d="M165.775 5.61269L155.499 34.7632L149.212 32.9517L159.488 3.80118L165.775 5.61269Z" fill="#FCFF5B"/>
<path fill-rule="evenodd" clip-rule="evenodd" d="M55.1166 31.1083C54.8094 30.7005 54.3364 30.4204 53.8018 30.3294C53.2672 30.2383 52.7147 30.344 52.2658 30.623C13.8227 54.5214 -7.34044 97.7321 2.32984 141.877C5.61996 156.896 12.1685 170.589 21.179 182.458C21.8221 183.305 23.0993 183.518 24.0317 182.933L30.4128 178.936C30.8606 178.655 31.1673 178.225 31.2656 177.739C31.3639 177.253 31.2456 176.751 30.9368 176.345C22.8261 165.662 16.9243 153.33 13.9552 139.776C5.24372 100.008 24.295 61.0584 58.9601 39.5086C59.8949 38.9275 60.134 37.7681 59.4943 36.919L55.1166 31.1083ZM4.34131 141.514C-5.02104 98.7742 15.0198 56.9219 51.7417 33.2261C52.2987 32.8667 52.8595 32.5114 53.4241 32.1605L57.8018 37.9712C22.4829 59.9274 3.06638 99.6142 11.9437 140.14C14.9684 153.947 20.9821 166.514 29.2484 177.402L22.8674 181.4C22.4795 180.889 22.0962 180.375 21.7178 179.857C13.4548 168.555 7.43421 155.632 4.34131 141.514Z" fill="#FCFF5B"/>
<path fill-rule="evenodd" clip-rule="evenodd" d="M178.595 37.3913C178.485 36.9074 178.592 36.4037 178.891 35.9911L183.157 30.1119C183.78 29.2528 185.052 29.0154 185.998 29.5815C224.894 52.867 246.884 95.7357 238.063 140.027C235.062 155.096 228.777 168.891 219.996 180.9C219.369 181.757 218.097 181.991 217.153 181.421L210.696 177.526C210.243 177.252 209.928 176.827 209.82 176.342C209.713 175.858 209.822 175.355 210.123 174.943C218.027 164.133 223.691 151.709 226.399 138.111C234.345 98.2106 214.549 59.569 179.475 38.5719C179.021 38.3 178.704 37.8753 178.595 37.3913ZM180.604 37.0166C216.339 58.4099 236.515 97.7827 228.417 138.442C225.658 152.295 219.887 164.956 211.831 175.974L218.288 179.87C218.666 179.353 219.039 178.832 219.408 178.309C227.452 166.878 233.224 153.862 236.045 139.696C244.585 96.8144 223.743 55.2861 186.572 32.1759C186.008 31.8255 185.44 31.4789 184.869 31.1371L180.604 37.0166Z" fill="#FCFF5B"/>
<path d="M184.848 211.8C186.074 211.521 187.311 211.101 188.559 210.539C189.808 209.977 190.946 209.324 191.971 208.58C194.048 207.074 195.271 205.444 195.639 203.689C196.007 201.934 195.415 200.172 193.859 198.402C192.303 196.63 190.543 195.714 188.577 195.652C186.612 195.588 184.59 196.312 182.513 197.818C181.436 198.599 180.464 199.474 179.596 200.447C178.729 201.419 178.024 202.407 177.479 203.413L173.833 199.763C174.372 198.801 175.118 197.811 176.072 196.795C177.027 195.779 178.145 194.805 179.427 193.876C182.966 191.31 186.458 190.038 189.899 190.06C193.34 190.082 196.392 191.607 199.053 194.636C201.713 197.664 202.675 200.705 201.936 203.758C201.197 206.811 199.057 209.621 195.518 212.187C192.953 214.046 190.423 215.252 187.926 215.803L184.848 211.8Z" fill="#FCFF5B"/>
<path fill-rule="evenodd" clip-rule="evenodd" d="M168.317 204.159C165.032 203.232 161.385 203.509 157.372 204.991C156.004 205.497 154.695 206.134 153.444 206.901C152.194 207.668 151.166 208.458 150.361 209.271L152.701 213.667C153.451 212.811 154.392 212.005 155.524 211.25C156.655 210.493 157.798 209.902 158.954 209.475C161.113 208.678 163.061 208.482 164.801 208.885C166.54 209.288 167.924 210.362 168.952 212.106L150.576 218.893C150.579 219.375 150.76 220.015 151.118 220.816C152.552 224.02 154.744 226.105 157.694 227.076C160.643 228.045 164.048 227.818 167.908 226.393C171.829 224.943 174.478 222.847 175.853 220.102C177.227 217.359 177.156 214.288 175.635 210.892C174.041 207.33 171.6 205.085 168.317 204.159ZM160.675 222.282C159.182 221.755 157.998 220.672 157.121 219.033L169.694 213.762C170.388 215.63 170.382 217.297 169.674 218.765C168.967 220.232 167.672 221.314 165.786 222.01C163.872 222.718 162.169 222.808 160.675 222.282Z" fill="#FCFF5B"/>
<path d="M140.38 233.106L137.695 224.619L137.451 224.639C137.495 227.359 136.746 229.667 135.208 231.56C133.668 233.455 131.33 234.532 128.194 234.793C125.122 235.048 122.616 234.388 120.678 232.814C118.74 231.238 117.616 228.907 117.305 225.821L116.008 212.953L122.577 212.406L123.815 224.696C123.991 226.447 124.659 227.76 125.819 228.637C126.978 229.514 128.537 229.871 130.498 229.707C132.818 229.514 134.555 228.599 135.708 226.962C136.862 225.325 137.323 223.363 137.092 221.077L136.105 211.282L142.722 210.732L144.938 232.727L140.38 233.106Z" fill="#FCFF5B"/>
<path d="M98.2668 209.531C95.8377 209.173 93.9091 209.085 92.4804 209.267L91.969 214.083C93.5872 213.96 95.0604 213.996 96.3878 214.191C99.6923 214.678 101.097 216.305 100.604 219.071L99.0268 227.897L89.6497 226.516L88.8141 231.194L99.7465 232.804L96.1662 238.891L103.697 240L104.022 233.435L108.978 234.165L109.813 229.487L105.586 228.864L107.185 219.905C107.727 216.873 107.193 214.515 105.582 212.829C103.972 211.142 101.534 210.043 98.2668 209.531Z" fill="#FCFF5B"/>
<path d="M44.3885 211.007L49.0654 202.767L48.8711 202.631C46.8669 204.804 44.7883 206.293 42.6339 207.102C40.4804 207.91 38.4408 207.641 36.5154 206.297C35.5279 205.606 34.6846 204.792 33.9877 203.854L38.1528 199.375C39.0361 200.631 40.0106 201.631 41.0772 202.375C42.8454 203.611 44.6616 203.874 46.5252 203.165C48.389 202.454 50.3518 200.882 52.4118 198.449L57.5724 192.353L62.8011 196.005L47.9779 213.514L44.3885 211.007Z" fill="#FCFF5B"/>
<path fill-rule="evenodd" clip-rule="evenodd" d="M85.749 209.283C84.2678 206.463 81.5667 204.219 77.644 202.549C76.3065 201.981 74.9034 201.541 73.434 201.227C71.9642 200.915 70.6282 200.766 69.4252 200.781L67.4608 205.327C68.6621 205.246 69.9531 205.326 71.3313 205.567C72.7117 205.808 73.9652 206.169 75.0949 206.65C77.2051 207.548 78.687 208.714 79.5422 210.147C80.3974 211.581 80.4695 213.233 79.7582 215.103L61.7949 207.458C61.4078 207.788 61.0127 208.343 60.6092 209.126C58.9939 212.257 58.7969 215.135 60.0153 217.761C61.2353 220.386 63.7307 222.503 67.5043 224.108C71.3381 225.739 74.831 226.081 77.9832 225.134C81.1331 224.188 83.5657 222.055 85.2777 218.735C87.0734 215.252 87.2302 212.101 85.749 209.283ZM65.9147 216.494C65.326 215.141 65.397 213.616 66.1261 211.918L78.9232 216.722C77.8856 218.453 76.5343 219.581 74.8676 220.106C73.2014 220.631 71.4478 220.502 69.6047 219.718C67.733 218.922 66.5034 217.847 65.9147 216.494Z" fill="#FCFF5B"/>
</svg>
