<svg width="10" height="15" viewBox="0 0 10 15" fill="none" xmlns="http://www.w3.org/2000/svg">
<path d="M4.42695 3.51664C4.23574 3.65647 4.00371 3.73191 3.76523 3.73191H1.1C0.801367 3.73191 0.528516 3.84887 0.330859 4.03838C0.126758 4.23393 0 4.50676 0 4.80851V10.1915C0 10.786 0.491992 11.2681 1.1 11.2681H3.76523C4.00371 11.2681 4.23574 11.3435 4.42695 11.4834L8.24043 14.2829C8.96445 14.8149 10 14.3086 10 13.4216V1.57845C10 0.691358 8.96445 0.185126 8.24043 0.717117L4.42695 3.51664Z" fill="white"/>
<path d="M4.42695 3.51664C4.23574 3.65647 4.00371 3.73191 3.76523 3.73191H1.1C0.801367 3.73191 0.528516 3.84887 0.330859 4.03838C0.126758 4.23393 0 4.50676 0 4.80851V10.1915C0 10.786 0.491992 11.2681 1.1 11.2681H3.76523C4.00371 11.2681 4.23574 11.3435 4.42695 11.4834L8.24043 14.2829C8.96445 14.8149 10 14.3086 10 13.4216V1.57845C10 0.691358 8.96445 0.185126 8.24043 0.717117L4.42695 3.51664Z" fill="white"/>
<path d="M4.42695 3.51664C4.23574 3.65647 4.00371 3.73191 3.76523 3.73191H1.1C0.801367 3.73191 0.528516 3.84887 0.330859 4.03838C0.126758 4.23393 0 4.50676 0 4.80851V10.1915C0 10.786 0.491992 11.2681 1.1 11.2681H3.76523C4.00371 11.2681 4.23574 11.3435 4.42695 11.4834L8.24043 14.2829C8.96445 14.8149 10 14.3086 10 13.4216V1.57845C10 0.691358 8.96445 0.185126 8.24043 0.717117L4.42695 3.51664Z" fill="white"/>
<path d="M4.42695 3.51664C4.23574 3.65647 4.00371 3.73191 3.76523 3.73191H1.1C0.801367 3.73191 0.528516 3.84887 0.330859 4.03838C0.126758 4.23393 0 4.50676 0 4.80851V10.1915C0 10.786 0.491992 11.2681 1.1 11.2681H3.76523C4.00371 11.2681 4.23574 11.3435 4.42695 11.4834L8.24043 14.2829C8.96445 14.8149 10 14.3086 10 13.4216V1.57845C10 0.691358 8.96445 0.185126 8.24043 0.717117L4.42695 3.51664Z" fill="white"/>
</svg>
