<svg width="146" height="53" viewBox="0 0 146 53" fill="none" xmlns="http://www.w3.org/2000/svg">
<path d="M16.6015 14.0635C17.3469 14.3512 18.0431 14.634 18.7855 14.9399C17.9961 14.7724 17.2268 14.6146 16.469 14.4684L16.6015 14.0635Z" fill="#202020"/>
<path fill-rule="evenodd" clip-rule="evenodd" d="M13.2327 12.8831C14.2177 13.184 15.1024 13.4931 16.0756 13.8621C16.2124 12.943 16.3695 12.0307 16.5591 11.1294C17.1695 8.22628 19.7801 -0.0839259 23.3054 0.0006407C29.4916 0.147569 31.4047 21.4959 31.4923 26.1126C31.4958 26.2971 31.4974 26.5019 31.4969 26.7253C33.8045 25.0386 35.9849 23.1627 38.003 21.0716C40.7121 18.2651 42.4159 15.4628 40.2467 14.1778C38.572 13.1861 34.7543 13.609 30.2735 14.4764L30.2018 14.0557C31.307 13.6288 32.4303 13.2251 33.5503 12.8831C36.3662 12.0228 44.8451 10.3213 46.4717 13.4762C48.0927 16.6188 43.1138 21.8397 37.78 26.1879L37.7803 26.1877C39.4233 27.2987 40.8689 28.4342 42.0976 29.59C43.9613 31.3432 48.0816 36.2353 46.38 38.9799C44.2795 42.369 37.1038 40.8722 30.5093 38.4846C29.4158 45.5427 27.2516 52.7722 23.2466 52.996C20.0417 53.1758 17.7788 47.1768 17.1541 44.6849C16.6921 42.8427 16.3856 40.7764 16.2225 38.5033C9.64214 40.8801 2.49815 42.3603 0.402991 38.9799C-1.2984 36.2355 2.82191 31.3436 4.6854 29.5902C5.91488 28.4332 7.35899 27.2996 9.00305 26.1877C3.66927 21.8395 -1.30955 16.6186 0.311243 13.476C1.93814 10.3213 10.4165 12.0228 13.2327 12.8831ZM15.6684 17.0264C15.77 16.1409 15.8773 15.2572 16.0008 14.3791C11.7245 13.5735 8.15279 13.2205 6.53656 14.1776C4.36689 15.4626 6.07086 18.2649 8.78002 21.0714C13.038 25.4834 18.0187 28.9377 23.3917 31.6772C24.9608 30.8771 26.4966 30.0161 27.9906 29.088C28.1936 23.0468 27.5919 17.008 25.8201 11.1445C24.6884 7.39786 23.0756 4.54102 20.9129 5.8381C18.9658 7.00574 17.2897 11.6652 15.6684 17.0264ZM16.0566 13.9907C16.0627 13.949 16.0689 13.9073 16.0751 13.8657C16.0698 13.8801 16.0636 13.9285 16.0566 13.9907ZM31.3287 30.9899C33.0806 29.7934 35.1722 28.2807 37.2421 26.6226C40.6184 30.169 42.8514 33.2062 42.2602 34.9826C41.2719 37.9538 35.5379 36.5934 30.9748 34.963C31.1307 33.5585 31.2464 32.213 31.3287 30.9899ZM27.7176 33.3101C27.7061 33.4284 27.694 33.5504 27.6811 33.6758C27.5622 33.6255 27.4464 33.5762 27.3339 33.528C27.4716 33.4512 27.5996 33.3785 27.7176 33.3101ZM19.0483 33.3C19.1711 33.3713 19.305 33.4474 19.4495 33.528C15.1277 35.382 5.80881 38.8485 4.52283 34.9828C3.93148 33.2058 6.16435 30.1691 9.5409 26.6223C13.4361 29.7427 17.4083 32.3481 19.0483 33.3ZM27.2243 37.2093C25.8519 36.6423 24.5542 36.0651 23.3917 35.5202C21.4511 36.4298 19.1339 37.4296 16.7209 38.3212C18.2297 43.341 19.8493 47.0795 21.7607 47.4291C24.8698 47.9981 26.4543 42.0743 27.2243 37.2093Z" fill="#202020"/>
<path d="M62.8717 7.60089H77.9291C81.1014 7.60089 83.6967 10.218 83.6967 13.4166V15.4963H77.1036V14.7468C77.1036 13.345 75.9665 12.1987 74.5765 12.1987H66.2246C64.8345 12.1987 63.6972 13.345 63.6972 14.7468V20.8436C63.6972 22.2453 64.8345 23.3919 66.2246 23.3919H74.5765C75.9665 23.3919 77.1036 22.2453 77.1036 20.8436V20.0941H83.6967V22.1738C83.6967 25.3724 81.1014 27.9895 77.9291 27.9895H62.8717C60.1138 27.9895 57.7916 26.0109 57.2325 23.3919C57.1486 22.9986 57.1043 22.5909 57.1043 22.1738V13.4166C57.1043 12.9992 57.1486 12.592 57.2325 12.1987C57.7916 9.57922 60.1138 7.60089 62.8717 7.60089Z" fill="#202020"/>
<path fill-rule="evenodd" clip-rule="evenodd" d="M86.1144 27.9895V7.60089H105.566C108.406 7.60089 110.729 9.94348 110.729 12.8067V14.3601C110.729 16.9609 108.813 19.1317 106.333 19.508C106.091 19.5451 105.843 19.5649 105.591 19.5659C105.843 19.5668 106.091 19.5864 106.333 19.6238C108.813 20.0001 110.729 22.1709 110.729 24.7715V26.3251C110.729 26.9066 110.633 27.4665 110.457 27.9895H104.136V22.0051H92.7073V27.9895H86.1144ZM92.7073 12.1987V17.4075H101.553C102.974 17.4075 104.136 16.2357 104.136 14.803C104.136 13.3703 102.974 12.1987 101.553 12.1987H92.7073Z" fill="#202020"/>
<path d="M130.013 21.2908L136.133 7.60089H146V27.9895H139.407V13.3457L132.86 27.9895H127.165L120.619 13.3457V27.9895H114.026V7.60089H123.892L130.013 21.2908Z" fill="#202020"/>
<path d="M100.274 44.3591L99.4108 41.6508H99.917L100.373 43.2136L100.534 43.7954C100.541 43.7669 100.59 43.5807 100.682 43.2373L101.134 41.6508H101.63L102.06 43.2233L102.201 43.739L102.365 43.2162L102.858 41.6508H103.329L102.433 44.3591H101.932L101.479 42.7386L101.364 42.2754L100.786 44.3591H100.274Z" fill="#202020"/>
<path d="M104.685 44.3591L103.822 41.6508H104.328L104.784 43.2136L104.945 43.7954C104.952 43.7669 105.001 43.5807 105.093 43.2373L105.545 41.6508H106.041L106.471 43.2233L106.612 43.739L106.776 43.2162L107.269 41.6508H107.74L106.844 44.3591H106.343L105.89 42.7386L105.775 42.2754L105.197 44.3591H104.685Z" fill="#202020"/>
<path d="M109.096 44.3591L108.233 41.6508H108.739L109.195 43.2136L109.356 43.7954C109.363 43.7669 109.412 43.5807 109.504 43.2373L109.956 41.6508H110.452L110.882 43.2233L111.023 43.739L111.187 43.2162L111.68 41.6508H112.15L111.255 44.3591H110.754L110.301 42.7386L110.186 42.2754L109.608 44.3591H109.096Z" fill="#202020"/>
<path d="M112.827 44.3591V43.837H113.377V44.3591H112.827Z" fill="#202020"/>
<path d="M114.644 44.3591V40.6228H115.129V44.3591H114.644Z" fill="#202020"/>
<path fill-rule="evenodd" clip-rule="evenodd" d="M116.315 45.3977V41.6508H116.755V42.0065C116.858 41.8688 116.976 41.7656 117.107 41.6969C117.237 41.6281 117.396 41.5932 117.582 41.5932C117.826 41.5932 118.04 41.6527 118.227 41.7717C118.413 41.8899 118.553 42.0576 118.649 42.2735C118.743 42.4901 118.791 42.7268 118.791 42.985C118.791 43.2606 118.738 43.5091 118.634 43.7312C118.529 43.9518 118.377 44.1217 118.177 44.24C117.978 44.3572 117.768 44.4165 117.548 44.4165C117.387 44.4165 117.242 44.3843 117.114 44.3198C116.986 44.2556 116.881 44.1746 116.799 44.0765V45.3977H116.315ZM116.755 43.0216C116.755 43.3684 116.829 43.6251 116.977 43.7912C117.125 43.9572 117.305 44.0406 117.516 44.0406C117.731 44.0406 117.914 43.9547 118.066 43.7824C118.219 43.6102 118.295 43.344 118.295 42.9831C118.295 42.6387 118.221 42.3814 118.072 42.2102C117.922 42.0387 117.744 41.9534 117.537 41.9534C117.332 41.9534 117.15 42.0446 116.992 42.2265C116.834 42.4091 116.755 42.6734 116.755 43.0216Z" fill="#202020"/>
<path d="M119.62 43.2373V42.7778H121.116V43.2373H119.62Z" fill="#202020"/>
<path d="M123.947 43.3676L124.42 43.4302C124.368 43.739 124.236 43.9799 124.022 44.1547C123.808 44.3293 123.545 44.4165 123.234 44.4165C122.844 44.4165 122.531 44.2958 122.294 44.0536C122.057 43.812 121.938 43.4657 121.938 43.0154C121.938 42.723 121.99 42.4684 122.091 42.2491C122.193 42.0309 122.348 41.8665 122.557 41.7578C122.766 41.6482 122.992 41.5932 123.238 41.5932C123.547 41.5932 123.801 41.6671 123.997 41.8159C124.194 41.9647 124.321 42.1762 124.376 42.4492L123.908 42.517C123.864 42.3351 123.785 42.1986 123.67 42.1065C123.556 42.0153 123.419 41.9692 123.257 41.9692C123.013 41.9692 122.815 42.0519 122.662 42.217C122.51 42.3831 122.434 42.6441 122.434 43.0024C122.434 43.3658 122.507 43.6294 122.654 43.7935C122.801 43.958 122.993 44.0406 123.229 44.0406C123.42 44.0406 123.578 43.9858 123.705 43.8755C123.832 43.7659 123.913 43.5963 123.947 43.3676Z" fill="#202020"/>
<path d="M125.264 44.3591V41.6508H125.699V42.0656C125.81 41.8733 125.913 41.7465 126.007 41.6855C126.102 41.6236 126.206 41.5932 126.318 41.5932C126.481 41.5932 126.648 41.6421 126.816 41.7384L126.644 42.162C126.526 42.0996 126.409 42.0682 126.292 42.0682C126.186 42.0682 126.092 42.0987 126.008 42.1587C125.925 42.2189 125.865 42.3021 125.829 42.4091C125.775 42.5718 125.749 42.7499 125.749 42.9441V44.3591H125.264Z" fill="#202020"/>
<path d="M127.539 44.3591V41.6508H127.974V42.0335C128.063 41.9012 128.182 41.7942 128.331 41.7141C128.479 41.6333 128.648 41.5932 128.838 41.5932C129.049 41.5932 129.222 41.6352 129.357 41.7179C129.492 41.8013 129.587 41.9168 129.642 42.0663C129.87 41.7507 130.164 41.5932 130.528 41.5932C130.812 41.5932 131.031 41.6671 131.183 41.8159C131.336 41.9647 131.413 42.1934 131.413 42.5021V44.3591H130.929V42.6543C130.929 42.4717 130.913 42.3396 130.881 42.2586C130.85 42.1778 130.793 42.1133 130.71 42.0637C130.627 42.0141 130.53 41.99 130.419 41.99C130.217 41.99 130.05 42.0533 129.918 42.1797C129.784 42.3065 129.718 42.509 129.718 42.7875V44.3591H129.234V42.6013C129.234 42.3977 129.195 42.2449 129.116 42.1431C129.037 42.0413 128.908 41.99 128.729 41.99C128.593 41.99 128.468 42.024 128.352 42.0916C128.236 42.1594 128.153 42.2586 128.101 42.3902C128.049 42.5206 128.024 42.7093 128.024 42.9552V44.3591H127.539Z" fill="#202020"/>
<path d="M132.698 44.3591V43.837H133.248V44.3591H132.698Z" fill="#202020"/>
<path fill-rule="evenodd" clip-rule="evenodd" d="M134.972 44.3591H134.52V40.6228H135.004V41.956C135.209 41.7141 135.47 41.5932 135.787 41.5932C135.962 41.5932 136.129 41.6265 136.286 41.6933C136.442 41.7602 136.571 41.8551 136.673 41.9761C136.774 42.0977 136.854 42.2439 136.91 42.4152C136.968 42.5858 136.996 42.7691 136.996 42.9639C136.996 43.4267 136.876 43.785 136.634 44.0373C136.392 44.2903 136.102 44.4165 135.764 44.4165C135.427 44.4165 135.163 44.2835 134.972 44.0182V44.3591ZM134.966 42.985C134.966 43.3086 135.013 43.5424 135.105 43.6868C135.258 43.9225 135.463 44.0406 135.723 44.0406C135.934 44.0406 136.117 43.9537 136.27 43.7799C136.424 43.606 136.501 43.3466 136.501 43.0024C136.501 42.6493 136.428 42.3892 136.28 42.2213C136.133 42.0533 135.954 41.9692 135.744 41.9692C135.533 41.9692 135.35 42.0562 135.197 42.23C135.043 42.4039 134.966 42.6554 134.966 42.985Z" fill="#202020"/>
<path d="M138.023 41.1446V40.6228H138.507V41.1446H138.023Z" fill="#202020"/>
<path d="M138.023 44.3591V41.6508H138.507V44.3591H138.023Z" fill="#202020"/>
<path d="M139.427 44.3591V43.9851L141.235 42.0056C141.03 42.016 140.85 42.0214 140.693 42.0214H139.537V41.6508H141.864V41.9525L140.317 43.6693L140.02 43.9884C140.237 43.9712 140.441 43.9624 140.631 43.9624H141.953V44.3591H139.427Z" fill="#202020"/>
<path d="M69.8907 33.8921L70.3557 35.1412H69.4388L69.8907 33.8921Z" fill="#202020"/>
<path d="M85.1887 35.9094V33.6752H85.4911C85.7652 33.6752 85.95 33.6861 86.0435 33.7074C86.1695 33.7348 86.2733 33.7884 86.355 33.8661C86.4368 33.9445 86.5008 34.0529 86.546 34.1928C86.5919 34.3326 86.6144 34.5322 86.6144 34.793C86.6144 35.0538 86.5919 35.2605 86.546 35.4114C86.5008 35.5622 86.4422 35.6706 86.3698 35.7367C86.2981 35.8026 86.2077 35.8496 86.0978 35.8773C86.0147 35.8985 85.8791 35.9094 85.6912 35.9094H85.1887Z" fill="#202020"/>
<path d="M116.534 33.6752V34.6366H116.902C117.168 34.6366 117.345 34.6187 117.434 34.5833C117.524 34.5481 117.594 34.493 117.645 34.4167C117.695 34.3414 117.721 34.2542 117.721 34.1536C117.721 34.0303 117.685 33.9289 117.614 33.8489C117.543 33.7688 117.453 33.7185 117.343 33.6979C117.263 33.683 117.102 33.6752 116.859 33.6752H116.534Z" fill="#202020"/>
<path d="M124.528 33.8921L124.993 35.1412H124.076L124.528 33.8921Z" fill="#202020"/>
<path fill-rule="evenodd" clip-rule="evenodd" d="M60.6755 31.1904H142.429C144.393 31.1904 146 32.8109 146 34.7913V34.7916C146 36.7725 144.393 38.3927 142.429 38.3927H60.6755C58.7113 38.3927 57.1043 36.7725 57.1043 34.7916V34.7913C57.1043 32.8109 58.7113 31.1904 60.6755 31.1904ZM61.1528 36.4799V33.1331H61.8305V35.9094H63.5087V36.4799H61.1528ZM71.5944 36.4799H70.8645L70.5754 35.7114H69.2331L68.9549 36.4799H68.2383L69.5377 33.1048H70.2536L71.5944 36.4799ZM76.5452 36.4799V33.1048H77.2011L78.5785 35.3666V33.1048H79.2049V36.4799H78.5279L77.1716 34.2613V36.4799H76.5452ZM84.511 33.1048H85.7434C86.0217 33.1048 86.2335 33.126 86.3792 33.1693C86.5748 33.2274 86.743 33.3311 86.8824 33.4804C87.0227 33.6287 87.1286 33.8111 87.2019 34.0272C87.2743 34.2424 87.3111 34.5086 87.3111 34.8244C87.3111 35.1027 87.2766 35.3415 87.2082 35.5425C87.1248 35.7885 87.0056 35.9871 86.8505 36.1388C86.7336 36.2543 86.5755 36.3438 86.3768 36.4083C86.2281 36.4562 86.0294 36.4799 85.78 36.4799H84.511V33.1048ZM92.4534 36.4799V33.1048H93.1311V36.4799H92.4534ZM98.3655 36.4799V33.1048H99.0214L100.399 35.3666V33.1048H101.025V36.4799H100.348L98.9919 34.2613V36.4799H98.3655ZM107.888 35.2402V34.6697H109.342V36.0162C109.201 36.1553 108.996 36.2772 108.727 36.3833C108.459 36.4884 108.187 36.541 107.911 36.541C107.561 36.541 107.257 36.4671 106.997 36.3188C106.737 36.1702 106.542 35.9574 106.411 35.6817C106.28 35.4058 106.214 35.1051 106.214 34.7805C106.214 34.4285 106.288 34.1158 106.433 33.8418C106.58 33.5682 106.793 33.3578 107.074 33.2118C107.289 33.0993 107.556 33.0436 107.875 33.0436C108.291 33.0436 108.616 33.1315 108.849 33.3074C109.082 33.4844 109.233 33.727 109.3 34.0381L108.626 34.1654C108.58 33.9996 108.491 33.8685 108.361 33.7718C108.231 33.6759 108.069 33.628 107.875 33.628C107.58 33.628 107.346 33.7222 107.172 33.9117C106.998 34.1009 106.911 34.3815 106.911 34.7531C106.911 35.1544 106.999 35.4554 107.175 35.6557C107.352 35.856 107.583 35.9566 107.868 35.9566C108.009 35.9566 108.151 35.9283 108.293 35.8725C108.435 35.8168 108.557 35.7483 108.659 35.6682V35.2402H107.888ZM115.856 36.4799V33.1048H116.94C117.35 33.1048 117.618 33.1213 117.742 33.1551C117.934 33.2061 118.094 33.3162 118.224 33.4858C118.353 33.6556 118.417 33.8746 118.417 34.1434C118.417 34.3508 118.38 34.5244 118.306 34.6659C118.231 34.8072 118.137 34.918 118.023 34.999C117.908 35.0791 117.791 35.1325 117.673 35.1585C117.511 35.1906 117.279 35.2071 116.973 35.2071H116.534V36.4799H115.856ZM126.232 36.4799H125.502L125.213 35.7114H123.871L123.593 36.4799H122.876L124.175 33.1048H124.891L126.232 36.4799ZM132.74 35.2402V34.6697H134.193V36.0162C134.052 36.1553 133.847 36.2772 133.579 36.3833C133.311 36.4884 133.039 36.541 132.763 36.541C132.413 36.541 132.108 36.4671 131.848 36.3188C131.589 36.1702 131.393 35.9574 131.262 35.6817C131.131 35.4058 131.066 35.1051 131.066 34.7805C131.066 34.4285 131.139 34.1158 131.285 33.8418C131.432 33.5682 131.645 33.3578 131.926 33.2118C132.141 33.0993 132.408 33.0436 132.727 33.0436C133.142 33.0436 133.467 33.1315 133.701 33.3074C133.934 33.4844 134.084 33.727 134.151 34.0381L133.478 34.1654C133.431 33.9996 133.343 33.8685 133.212 33.7718C133.083 33.6759 132.921 33.628 132.726 33.628C132.432 33.628 132.197 33.7222 132.023 33.9117C131.85 34.1009 131.763 34.3815 131.763 34.7531C131.763 35.1544 131.851 35.4554 132.027 35.6557C132.204 35.856 132.434 35.9566 132.72 35.9566C132.861 35.9566 133.003 35.9283 133.145 35.8725C133.287 35.8168 133.409 35.7483 133.511 35.6682V35.2402H132.74ZM139.409 36.4799V33.1048H141.886V33.6752H140.087V34.4248H141.76V34.995H140.087V35.9094H141.952V36.4799H139.409Z" fill="#202020"/>
</svg>
