<svg width="186" height="68" viewBox="0 0 186 68" fill="none" xmlns="http://www.w3.org/2000/svg">
<path d="M21.4696 18.063C22.415 18.4317 23.298 18.794 24.2395 19.186C23.2383 18.9714 22.2626 18.7692 21.3015 18.5818L21.4696 18.063Z" fill="white"/>
<path fill-rule="evenodd" clip-rule="evenodd" d="M17.1969 16.5503C18.4462 16.9359 19.5683 17.332 20.8026 17.8049C20.9761 16.627 21.1753 15.458 21.4158 14.303C22.19 10.5827 25.501 -0.0665329 29.9721 0.0418367C37.8181 0.230121 40.2446 27.5874 40.3557 33.5035C40.3601 33.7399 40.3621 34.0023 40.3615 34.2887C43.2882 32.1273 46.0536 29.7233 48.6131 27.0437C52.0492 23.4472 54.21 19.8562 51.4588 18.2094C49.3348 16.9387 44.4929 17.4805 38.8098 18.592L38.7189 18.0529C40.1207 17.5059 41.5453 16.9886 42.9657 16.5503C46.5373 15.4478 57.291 13.2674 59.3541 17.3104C61.41 21.3375 55.0952 28.028 48.3303 33.6001L48.3307 33.5998C50.4146 35.0234 52.248 36.4785 53.8064 37.9597C56.1701 40.2064 61.3959 46.4755 59.2378 49.9926C56.5737 54.3356 47.4728 52.4176 39.1089 49.3579C37.722 58.4026 34.9771 67.6671 29.8975 67.9539C25.8328 68.1842 22.9628 60.4966 22.1704 57.3034C21.5845 54.9426 21.1957 52.2948 20.9889 49.3818C12.643 52.4277 3.58223 54.3245 0.924934 49.9926C-1.23295 46.4757 3.99285 40.2069 6.35633 37.9599C7.91568 36.4773 9.74726 35.0246 11.8324 33.5998C5.06757 28.0277 -1.24709 21.3373 0.808569 17.3101C2.87197 13.2675 13.6251 15.4479 17.1969 16.5503ZM20.2862 21.8598C20.415 20.725 20.551 19.5927 20.7077 18.4674C15.284 17.4351 10.754 16.9827 8.70416 18.2092C5.95237 19.8559 8.11352 23.4469 11.5496 27.0434C16.9499 32.6972 23.267 37.1238 30.0816 40.6344C32.0718 39.6091 34.0195 38.5057 35.9144 37.3164C36.1719 29.5749 35.4088 21.8362 33.1616 14.3224C31.7262 9.52115 29.6807 5.8602 26.9378 7.52237C24.4682 9.01865 22.3424 14.9896 20.2862 21.8598ZM20.7785 17.9696C20.7863 17.9162 20.7941 17.8628 20.8019 17.8095C20.7952 17.828 20.7874 17.89 20.7785 17.9696ZM40.1482 39.7537C42.3701 38.2204 45.0229 36.2819 47.6481 34.1571C51.9302 38.7017 54.7625 42.5938 54.0125 44.8702C52.7591 48.6777 45.4866 46.9344 39.6993 44.845C39.897 43.0452 40.0438 41.321 40.1482 39.7537ZM35.5682 42.7269C35.5536 42.8785 35.5382 43.0348 35.5219 43.1955C35.371 43.1311 35.2242 43.0679 35.0816 43.0061C35.2561 42.9077 35.4185 42.8145 35.5682 42.7269ZM24.5729 42.714C24.7286 42.8054 24.8985 42.9029 25.0816 43.0061C19.6004 45.382 7.78115 49.8242 6.15014 44.8705C5.40014 42.5933 8.23209 38.7018 12.5146 34.1567C17.4548 38.1554 22.4928 41.4942 24.5729 42.714ZM34.9426 47.7236C33.2019 46.9971 31.556 46.2574 30.0816 45.5591C27.6204 46.7247 24.6814 48.0059 21.621 49.1485C23.5346 55.5812 25.5887 60.372 28.013 60.8199C31.9563 61.5491 33.966 53.9579 34.9426 47.7236Z" fill="white"/>
<path d="M80.1542 9.78132H99.2516C103.275 9.78132 106.567 13.135 106.567 17.234V19.899H98.2046V18.9386C98.2046 17.1423 96.7625 15.6732 94.9995 15.6732H84.4067C82.6437 15.6732 81.2012 17.1423 81.2012 18.9386V26.7515C81.2012 28.5477 82.6437 30.0171 84.4067 30.0171H94.9995C96.7625 30.0171 98.2046 28.5477 98.2046 26.7515V25.791H106.567V28.456C106.567 32.555 103.275 35.9087 99.2516 35.9087H80.1542C76.6564 35.9087 73.7112 33.3732 73.002 30.0171C72.8956 29.5131 72.8395 28.9906 72.8395 28.456V17.234C72.8395 16.6991 72.8956 16.1772 73.002 15.6732C73.7112 12.3165 76.6564 9.78132 80.1542 9.78132Z" fill="white"/>
<path fill-rule="evenodd" clip-rule="evenodd" d="M109.633 35.9087V9.78132H134.304C137.905 9.78132 140.852 12.7833 140.852 16.4524V18.443C140.852 21.7758 138.421 24.5577 135.277 25.0399C134.969 25.0875 134.655 25.1129 134.335 25.1141C134.655 25.1153 134.969 25.1404 135.277 25.1883C138.421 25.6705 140.852 28.4524 140.852 31.7849V33.7758C140.852 34.5211 140.73 35.2385 140.507 35.9087H132.489V28.2399H117.995V35.9087H109.633ZM117.995 15.6732V22.3483H129.214C131.016 22.3483 132.489 20.8465 132.489 19.0106C132.489 17.1747 131.016 15.6732 129.214 15.6732H117.995Z" fill="white"/>
<path d="M165.309 27.3245L173.072 9.78132H185.586V35.9087H177.224V17.1432L168.921 35.9087H161.698L153.395 17.1432V35.9087H145.033V9.78132H157.546L165.309 27.3245Z" fill="white"/>
<path d="M127.591 56.8858L126.497 53.4153H127.139L127.717 55.418L127.922 56.1636C127.93 56.1269 127.993 55.8884 128.109 55.4483L128.682 53.4153H129.312L129.857 55.4304L130.035 56.0912L130.243 55.4213L130.869 53.4153H131.466L130.33 56.8858H129.695L129.12 54.8092L128.975 54.2156L128.242 56.8858H127.591Z" fill="white"/>
<path d="M133.186 56.8858L132.091 53.4153H132.733L133.311 55.418L133.516 56.1636C133.524 56.1269 133.587 55.8884 133.704 55.4483L134.277 53.4153H134.906L135.452 55.4304L135.63 56.0912L135.838 55.4213L136.464 53.4153H137.061L135.924 56.8858H135.289L134.715 54.8092L134.569 54.2156L133.836 56.8858H133.186Z" fill="white"/>
<path d="M138.78 56.8858L137.686 53.4153H138.328L138.906 55.418L139.111 56.1636C139.119 56.1269 139.182 55.8884 139.298 55.4483L139.871 53.4153H140.501L141.046 55.4304L141.224 56.0912L141.432 55.4213L142.058 53.4153H142.655L141.519 56.8858H140.883L140.309 54.8092L140.164 54.2156L139.431 56.8858H138.78Z" fill="white"/>
<path d="M143.513 56.8858V56.2168H144.21V56.8858H143.513Z" fill="white"/>
<path d="M145.817 56.8858V52.0979H146.432V56.8858H145.817Z" fill="white"/>
<path fill-rule="evenodd" clip-rule="evenodd" d="M147.936 58.2168V53.4153H148.494V53.8711C148.626 53.6947 148.775 53.5624 148.941 53.4743C149.106 53.3862 149.307 53.3414 149.544 53.3414C149.853 53.3414 150.125 53.4177 150.361 53.5703C150.598 53.7216 150.775 53.9365 150.896 54.2132C151.016 54.4908 151.077 54.7941 151.077 55.125C151.077 55.4782 151.01 55.7967 150.878 56.0812C150.745 56.3639 150.552 56.5816 150.299 56.7332C150.046 56.8834 149.78 56.9594 149.501 56.9594C149.296 56.9594 149.112 56.9182 148.95 56.8356C148.788 56.7532 148.655 56.6494 148.55 56.5238V58.2168H147.936ZM148.494 55.1719C148.494 55.6163 148.589 55.9453 148.776 56.1581C148.964 56.3709 149.193 56.4778 149.46 56.4778C149.732 56.4778 149.965 56.3676 150.158 56.1469C150.352 55.9262 150.448 55.5851 150.448 55.1225C150.448 54.6812 150.354 54.3515 150.165 54.1321C149.975 53.9123 149.75 53.803 149.486 53.803C149.226 53.803 148.996 53.9199 148.796 54.153C148.594 54.387 148.494 54.7257 148.494 55.1719Z" fill="white"/>
<path d="M152.128 55.4483V54.8595H154.026V55.4483H152.128Z" fill="white"/>
<path d="M157.616 55.6154L158.217 55.6956C158.15 56.0912 157.982 56.4 157.712 56.624C157.441 56.8477 157.107 56.9594 156.713 56.9594C156.218 56.9594 155.82 56.8047 155.52 56.4944C155.219 56.1847 155.068 55.741 155.068 55.164C155.068 54.7893 155.134 54.4629 155.263 54.182C155.392 53.9023 155.589 53.6916 155.854 53.5524C156.118 53.4119 156.405 53.3414 156.717 53.3414C157.109 53.3414 157.431 53.4362 157.68 53.6269C157.93 53.8176 158.091 54.0885 158.161 54.4384L157.567 54.5253C157.511 54.2922 157.41 54.1172 157.265 53.9992C157.121 53.8823 156.946 53.8233 156.741 53.8233C156.432 53.8233 156.181 53.9293 155.986 54.1409C155.794 54.3537 155.697 54.6882 155.697 55.1474C155.697 55.6129 155.79 55.9508 155.976 56.1611C156.163 56.3718 156.406 56.4778 156.705 56.4778C156.948 56.4778 157.149 56.4075 157.309 56.2662C157.471 56.1257 157.573 55.9084 157.616 55.6154Z" fill="white"/>
<path d="M159.287 56.8858V53.4153H159.838V53.9468C159.979 53.7004 160.11 53.5379 160.229 53.4598C160.349 53.3805 160.481 53.3414 160.624 53.3414C160.831 53.3414 161.041 53.4041 161.256 53.5276L161.036 54.0703C160.888 53.9904 160.739 53.9502 160.59 53.9502C160.456 53.9502 160.337 53.9892 160.23 54.0661C160.125 54.1433 160.049 54.2498 160.004 54.387C159.935 54.5955 159.901 54.8238 159.901 55.0726V56.8858H159.287Z" fill="white"/>
<path d="M162.173 56.8858V53.4153H162.724V53.9057C162.837 53.7361 162.988 53.599 163.176 53.4964C163.365 53.3929 163.578 53.3414 163.819 53.3414C164.087 53.3414 164.307 53.3953 164.478 53.5012C164.649 53.6081 164.77 53.7561 164.84 53.9477C165.128 53.5433 165.502 53.3414 165.962 53.3414C166.323 53.3414 166.601 53.4362 166.794 53.6269C166.988 53.8176 167.086 54.1106 167.086 54.5062V56.8858H166.471V54.7012C166.471 54.4672 166.451 54.298 166.411 54.1941C166.372 54.0906 166.3 54.008 166.194 53.9444C166.089 53.8808 165.966 53.85 165.825 53.85C165.569 53.85 165.357 53.9311 165.189 54.093C165.02 54.2556 164.936 54.515 164.936 54.8719V56.8858H164.322V54.6334C164.322 54.3724 164.272 54.1766 164.172 54.0461C164.072 53.9156 163.908 53.85 163.681 53.85C163.509 53.85 163.35 53.8935 163.203 53.9801C163.056 54.067 162.951 54.1941 162.884 54.3627C162.819 54.5298 162.787 54.7717 162.787 55.0868V56.8858H162.173Z" fill="white"/>
<path d="M168.715 56.8858V56.2168H169.412V56.8858H168.715Z" fill="white"/>
<path fill-rule="evenodd" clip-rule="evenodd" d="M171.599 56.8858H171.026V52.0979H171.64V53.8064C171.9 53.4964 172.23 53.3414 172.633 53.3414C172.855 53.3414 173.067 53.3841 173.266 53.4698C173.464 53.5554 173.627 53.6771 173.756 53.8321C173.884 53.988 173.986 54.1754 174.058 54.3948C174.131 54.6134 174.167 54.8483 174.167 55.098C174.167 55.691 174.014 56.1502 173.707 56.4735C173.4 56.7977 173.033 56.9594 172.604 56.9594C172.177 56.9594 171.842 56.789 171.599 56.449V56.8858ZM171.592 55.125C171.592 55.5397 171.651 55.8394 171.768 56.0243C171.962 56.3264 172.222 56.4778 172.551 56.4778C172.82 56.4778 173.052 56.3664 173.246 56.1436C173.441 55.9208 173.539 55.5884 173.539 55.1474C173.539 54.6948 173.446 54.3615 173.259 54.1463C173.071 53.9311 172.845 53.8233 172.579 53.8233C172.31 53.8233 172.079 53.9347 171.885 54.1575C171.689 54.3803 171.592 54.7027 171.592 55.125Z" fill="white"/>
<path d="M175.47 52.7666V52.0979H176.083V52.7666H175.47Z" fill="white"/>
<path d="M175.47 56.8858V53.4153H176.083V56.8858H175.47Z" fill="white"/>
<path d="M177.249 56.8858V56.4066L179.543 53.8699C179.283 53.8833 179.054 53.8902 178.856 53.8902H177.389V53.4153H180.341V53.8018L178.378 56.0019L178.002 56.4109C178.277 56.3888 178.536 56.3776 178.777 56.3776H180.453V56.8858H177.249Z" fill="white"/>
<path d="M89.0565 43.4727L89.6462 45.0734H88.4834L89.0565 43.4727Z" fill="white"/>
<path d="M108.459 46.0578V43.1948H108.843C109.19 43.1948 109.425 43.2087 109.543 43.236C109.703 43.2711 109.835 43.3398 109.938 43.4394C110.042 43.5399 110.123 43.6788 110.18 43.858C110.239 44.0373 110.267 44.293 110.267 44.6272C110.267 44.9614 110.239 45.2263 110.18 45.4197C110.123 45.6129 110.049 45.7518 109.957 45.8366C109.866 45.921 109.751 45.9812 109.612 46.0167C109.507 46.0439 109.335 46.0578 109.096 46.0578H108.459Z" fill="white"/>
<path d="M148.214 43.1948V44.4268H148.682C149.018 44.4268 149.243 44.4038 149.356 44.3584C149.47 44.3133 149.559 44.2428 149.623 44.145C149.687 44.0485 149.72 43.9368 149.72 43.8078C149.72 43.6498 149.674 43.5199 149.584 43.4173C149.493 43.3147 149.38 43.2502 149.241 43.2239C149.139 43.2048 148.934 43.1948 148.626 43.1948H148.214Z" fill="white"/>
<path d="M158.354 43.4727L158.944 45.0734H157.78L158.354 43.4727Z" fill="white"/>
<path fill-rule="evenodd" clip-rule="evenodd" d="M77.3689 40.0106H181.057C183.548 40.0106 185.586 42.0872 185.586 44.6251V44.6254C185.586 47.1639 183.548 49.2402 181.057 49.2402H77.3689C74.8776 49.2402 72.8395 47.1639 72.8395 44.6254V44.6251C72.8395 42.0872 74.8776 40.0106 77.3689 40.0106ZM77.9741 46.7889V42.5001H78.8337V46.0578H80.9621V46.7889H77.9741ZM91.2173 46.7889H90.2916L89.9249 45.8042H88.2225L87.8695 46.7889H86.9607L88.6087 42.4638H89.5167L91.2173 46.7889ZM97.4964 46.7889V42.4638H98.3283L100.075 45.3622V42.4638H100.87V46.7889H100.011L98.2908 43.9458V46.7889H97.4964ZM107.599 42.4638H109.163C109.516 42.4638 109.784 42.491 109.969 42.5464C110.217 42.6209 110.43 42.7538 110.607 42.9451C110.785 43.1352 110.919 43.3689 111.012 43.6458C111.104 43.9216 111.151 44.2628 111.151 44.6675C111.151 45.0241 111.107 45.3301 111.02 45.5877C110.915 45.9028 110.763 46.1574 110.567 46.3518C110.418 46.4998 110.218 46.6145 109.966 46.6971C109.777 46.7586 109.525 46.7889 109.209 46.7889H107.599V42.4638ZM117.673 46.7889V42.4638H118.532V46.7889H117.673ZM125.171 46.7889V42.4638H126.003L127.75 45.3622V42.4638H128.545V46.7889H127.686L125.966 43.9458V46.7889H125.171ZM137.249 45.2003V44.4692H139.092V46.1947C138.913 46.3729 138.654 46.5291 138.313 46.6651C137.973 46.7998 137.628 46.8673 137.278 46.8673C136.834 46.8673 136.448 46.7725 136.118 46.5824C135.789 46.392 135.541 46.1193 135.375 45.766C135.209 45.4125 135.126 45.0271 135.126 44.6112C135.126 44.1601 135.219 43.7594 135.404 43.4082C135.59 43.0577 135.86 42.788 136.217 42.6009C136.489 42.4568 136.828 42.3854 137.233 42.3854C137.759 42.3854 138.171 42.498 138.468 42.7235C138.763 42.9502 138.954 43.2611 139.039 43.6598L138.185 43.8229C138.126 43.6104 138.013 43.4424 137.848 43.3186C137.684 43.1957 137.479 43.1343 137.232 43.1343C136.858 43.1343 136.561 43.2551 136.34 43.4978C136.12 43.7403 136.009 44.0999 136.009 44.5761C136.009 45.0904 136.121 45.476 136.344 45.7327C136.568 45.9894 136.861 46.1184 137.224 46.1184C137.402 46.1184 137.583 46.082 137.762 46.0106C137.943 45.9392 138.097 45.8514 138.227 45.7488V45.2003H137.249ZM147.354 46.7889V42.4638H148.729C149.25 42.4638 149.589 42.485 149.747 42.5282C149.99 42.5936 150.193 42.7347 150.357 42.952C150.521 43.1697 150.603 43.4503 150.603 43.7948C150.603 44.0606 150.556 44.2831 150.462 44.4644C150.367 44.6454 150.248 44.7874 150.102 44.8912C149.957 44.9938 149.809 45.0622 149.659 45.0955C149.454 45.1367 149.159 45.1579 148.771 45.1579H148.214V46.7889H147.354ZM160.515 46.7889H159.589L159.222 45.8042H157.52L157.167 46.7889H156.258L157.906 42.4638H158.814L160.515 46.7889ZM168.768 45.2003V44.4692H170.612V46.1947C170.433 46.3729 170.173 46.5291 169.832 46.6651C169.492 46.7998 169.147 46.8673 168.798 46.8673C168.354 46.8673 167.968 46.7725 167.637 46.5824C167.309 46.392 167.061 46.1193 166.894 45.766C166.728 45.4125 166.645 45.0271 166.645 44.6112C166.645 44.1601 166.738 43.7594 166.923 43.4082C167.109 43.0577 167.38 42.788 167.736 42.6009C168.009 42.4568 168.347 42.3854 168.752 42.3854C169.279 42.3854 169.691 42.498 169.987 42.7235C170.283 42.9502 170.473 43.2611 170.558 43.6598L169.705 43.8229C169.645 43.6104 169.533 43.4424 169.368 43.3186C169.204 43.1957 168.998 43.1343 168.751 43.1343C168.378 43.1343 168.08 43.2551 167.86 43.4978C167.64 43.7403 167.529 44.0999 167.529 44.5761C167.529 45.0904 167.64 45.476 167.864 45.7327C168.088 45.9894 168.381 46.1184 168.743 46.1184C168.922 46.1184 169.102 46.082 169.282 46.0106C169.463 45.9392 169.617 45.8514 169.746 45.7488V45.2003H168.768ZM177.227 46.7889V42.4638H180.369V43.1948H178.086V44.1553H180.209V44.886H178.086V46.0578H180.452V46.7889H177.227Z" fill="white"/>
</svg>
