<svg width="543" height="537" viewBox="0 0 543 537" fill="none" xmlns="http://www.w3.org/2000/svg">
<path d="M9.64169 364.399C33.0466 348.176 287.168 166.251 299.049 137.605C310.929 108.959 313.707 56.3567 313.707 56.3567C313.707 56.3567 309.824 14.585 332.276 10.2077C360.341 4.73604 371.935 41.1426 376.115 69.5916C378.37 84.9433 372.827 99.7472 371.691 109.075L466.611 71.7946C475.141 66.9643 494.114 62.1031 501.767 81.3005C509.42 100.498 484.214 115.949 470.654 121.274C481.181 116.77 504.111 111.909 511.621 128.498C519.131 145.087 494.383 164.873 481.07 172.692C489.991 166.968 510.632 160.859 521.834 182.215C533.037 203.571 505.88 219.936 490.901 225.449C500.917 219.665 523.017 213.28 531.282 234.013C539.548 254.746 520.816 269.578 510.417 274.403L9.64169 527.213" stroke="#FCFF5B" stroke-width="18" stroke-linecap="round" stroke-linejoin="round"/>
</svg>
