<svg width="270" height="270" viewBox="0 0 270 270" fill="none" xmlns="http://www.w3.org/2000/svg">
<g clip-path="url(#clip0_184_2004)">
<path d="M66.8247 71.9914L43.6388 50.9719L39.6301 55.5023L62.8154 76.5214L66.8247 71.9914Z" fill="#202020"/>
<path fill-rule="evenodd" clip-rule="evenodd" d="M49.5268 81.5583L49.3688 81.8315C50.4449 82.5561 51.3857 83.5145 52.1907 84.7089C52.9966 85.903 53.4435 87.2981 53.5301 88.8948C53.6177 90.4913 53.1504 92.1758 52.1288 93.9487C50.8663 96.1383 49.3837 97.5344 47.6827 98.1338C45.9814 98.734 44.2452 98.5229 42.4724 97.5014C40.4645 96.3437 39.4055 94.7615 39.2958 92.7526C39.1859 90.7428 39.8521 88.4873 41.2949 85.984C42.5577 83.7938 43.9976 81.6878 45.6134 79.6667L44.9094 79.2607C43.487 78.4756 42.1689 78.3056 40.9563 78.7529C39.7428 79.2004 38.6775 80.2193 37.761 81.8098C36.3927 84.1829 35.5481 86.822 35.2281 89.7293L30.616 87.696C30.74 86.2738 31.0647 84.7928 31.5876 83.2531C32.1107 81.7144 32.7842 80.2265 33.6114 78.792C35.521 75.4812 37.6614 73.4408 40.0326 72.6719C42.4036 71.902 44.8805 72.2615 47.4622 73.7492L59.1568 80.4912L57.0598 84.1281L49.5268 81.5583ZM44.4434 91.5505C45.3297 92.0616 46.2067 92.1235 47.0722 91.7374C47.9379 91.3496 48.7005 90.5835 49.3619 89.436C50.2191 87.9491 50.5369 86.4043 50.3153 84.8C50.0935 83.1963 49.1338 81.8184 47.4356 80.665L47.1228 80.4844C45.9138 82.2196 44.9638 83.687 44.2728 84.8864C43.3405 86.5031 42.8885 87.8745 42.9163 89.0027C42.9436 90.1306 43.4529 90.9798 44.4434 91.5505Z" fill="#202020"/>
<path d="M30.7373 99.4217C30.0305 100.339 29.4034 101.375 28.8577 102.531C28.3111 103.687 27.9017 104.851 27.6296 106.024C27.079 108.398 27.2204 110.385 28.0543 111.985C28.8881 113.584 30.4188 114.642 32.6476 115.159C34.8755 115.676 36.7159 115.401 38.1687 114.332C39.6212 113.263 40.6237 111.541 41.1746 109.166C41.4605 107.935 41.6116 106.689 41.6267 105.425C41.6415 104.161 41.5298 102.977 41.2919 101.871L46.2006 102.686C46.4158 103.756 46.4989 104.965 46.4488 106.312C46.3988 107.66 46.2034 109.067 45.8632 110.533C44.9247 114.579 43.2099 117.572 40.7198 119.512C38.2307 121.452 35.0809 121.981 31.2691 121.096C27.4582 120.211 24.862 118.351 23.4811 115.511C22.1011 112.673 21.8795 109.231 22.819 105.185C23.4992 102.254 24.5652 99.8591 26.0154 98.0014L30.7373 99.4217Z" fill="#202020"/>
<path d="M54.3364 41.1607L75.2316 63.9324L70.7855 68.0348L49.8902 45.2631L54.3364 41.1607Z" fill="#202020"/>
<path fill-rule="evenodd" clip-rule="evenodd" d="M26.4034 142.074C25.9062 142.115 25.4455 142.352 25.1227 142.732C24.7999 143.112 24.6415 143.605 24.6822 144.103C28.1695 186.686 56.4478 225.166 99.5591 239.549C114.227 244.443 129.212 246.077 143.716 244.837C144.751 244.748 145.518 243.837 145.43 242.802L144.824 235.718C144.781 235.221 144.543 234.761 144.162 234.44C143.78 234.119 143.286 233.962 142.789 234.004C129.734 235.121 116.236 233.652 103 229.236C64.1631 216.279 38.6622 181.614 35.5175 143.215C35.4327 142.18 34.5246 141.409 33.4892 141.494L26.4034 142.074ZM100.154 237.765C58.4159 223.839 30.8189 186.933 26.7269 145.823C26.6648 145.199 26.6082 144.575 26.557 143.949L33.6427 143.369C36.8467 182.492 62.8283 217.817 102.405 231.021C115.889 235.519 129.644 237.016 142.95 235.879L143.555 242.962C142.931 243.016 142.306 243.064 141.68 243.106C128.013 244.034 113.943 242.365 100.154 237.765Z" fill="#202020"/>
<path fill-rule="evenodd" clip-rule="evenodd" d="M88.0335 46.8476C87.5593 46.6927 87.166 46.3557 86.9402 45.9108L83.7227 39.5711C83.2525 38.6447 83.6224 37.5125 84.5488 37.0424C122.649 17.7058 170.24 21.6361 205.075 50.8241C216.927 60.7546 226.169 72.6633 232.71 85.6675C233.177 86.5956 232.803 87.7264 231.875 88.1932L225.524 91.388C225.078 91.6122 224.562 91.6501 224.088 91.4935C223.615 91.3369 223.222 90.9985 222.998 90.5528C217.11 78.8473 208.789 68.1189 198.093 59.1573C166.711 32.8633 123.825 29.3006 89.469 46.7369C89.0241 46.9627 88.5077 47.0025 88.0335 46.8476ZM88.6182 45.0592C123.622 27.2944 167.322 30.921 199.301 57.7155C210.197 66.8447 218.678 77.7773 224.679 89.7075L231.03 86.5127C230.748 85.953 230.462 85.3953 230.17 84.8398C223.801 72.7117 215.009 61.6012 203.867 52.266C170.141 24.0074 124.247 19.833 87.0849 37.8831C86.5214 38.1568 85.9594 38.4359 85.4001 38.7198L88.6182 45.0592Z" fill="#202020"/>
<path d="M243.836 129.128C244.148 128.013 244.342 126.817 244.416 125.541C244.491 124.266 244.436 123.033 244.249 121.844C243.872 119.435 242.998 117.645 241.627 116.473C240.255 115.302 238.44 114.893 236.18 115.247C233.92 115.6 232.316 116.544 231.368 118.078C230.419 119.613 230.135 121.585 230.512 123.993C230.707 125.242 231.033 126.455 231.492 127.632C231.95 128.809 232.496 129.866 233.131 130.803L228.273 131.882C227.674 130.971 227.145 129.881 226.687 128.613C226.23 127.344 225.884 125.965 225.652 124.479C225.01 120.376 225.481 116.958 227.065 114.227C228.648 111.497 231.373 109.829 235.239 109.225C239.104 108.62 242.207 109.376 244.549 111.492C246.891 113.608 248.383 116.719 249.024 120.822C249.489 123.795 249.397 126.414 248.746 128.679L243.836 129.128Z" fill="#202020"/>
<path fill-rule="evenodd" clip-rule="evenodd" d="M229.621 138.476C227.315 140.628 225.901 143.673 225.377 147.611C225.198 148.954 225.162 150.315 225.266 151.696C225.371 153.076 225.597 154.29 225.943 155.338L230.863 155.674C230.453 154.647 230.173 153.494 230.025 152.215C229.876 150.935 229.877 149.729 230.028 148.594C230.31 146.476 231.024 144.825 232.168 143.641C233.312 142.458 234.883 141.892 236.879 141.946L234.48 159.981C234.904 160.219 235.548 160.396 236.413 160.511C239.874 160.972 242.7 160.269 244.892 158.405C247.082 156.54 248.431 153.714 248.935 149.925C249.446 146.076 248.811 142.917 247.029 140.448C245.247 137.981 242.522 136.502 238.852 136.014C235.003 135.502 231.926 136.323 229.621 138.476ZM242.042 153.631C240.902 154.557 239.414 154.959 237.578 154.837L238.669 142.184C240.623 142.565 242.082 143.404 243.048 144.702C244.013 146 244.373 147.573 244.127 149.423C243.878 151.302 243.182 152.704 242.042 153.631Z" fill="#202020"/>
<path d="M242.311 175.215L233.648 173.107L233.555 173.312C235.96 174.638 237.644 176.389 238.605 178.562C239.567 180.737 239.449 183.138 238.252 185.767C237.08 188.342 235.362 190.008 233.101 190.765C230.838 191.52 228.283 191.249 225.435 189.953L213.559 184.548L216.066 179.042L227.406 184.204C229.023 184.94 230.478 185.065 231.774 184.58C233.07 184.094 234.091 183.031 234.839 181.387C235.725 179.442 235.711 177.6 234.799 175.863C233.888 174.125 232.377 172.776 230.267 171.816L221.228 167.701L223.753 162.155L244.051 171.394L242.311 175.215Z" fill="#202020"/>
<path d="M202.496 196.97C201.078 198.726 200.124 200.218 199.634 201.447L203.626 204.264C204.253 202.914 204.954 201.758 205.729 200.798C207.657 198.409 209.723 198.104 211.924 199.881L218.948 205.553L213.475 212.333L217.199 215.339L223.579 207.435L227.29 213.333L231.685 207.889L226.075 204.345L228.968 200.761L225.245 197.756L222.777 200.812L215.647 195.055C213.234 193.106 210.923 192.352 208.712 192.792C206.501 193.23 204.429 194.623 202.496 196.97Z" fill="#202020"/>
<path d="M179.303 240.631L174.201 232.782L173.994 232.869C174.989 235.552 175.35 237.954 175.08 240.075C174.81 242.194 173.648 243.685 171.593 244.546C170.539 244.988 169.442 245.252 168.303 245.338L166.267 239.779C167.77 239.703 169.09 239.427 170.228 238.95C172.115 238.16 173.171 236.844 173.396 235.005C173.62 233.164 173.133 230.814 171.936 227.956L168.935 220.794L174.514 218.456L183.133 239.026L179.303 240.631Z" fill="#202020"/>
<path fill-rule="evenodd" clip-rule="evenodd" d="M196.588 206.818C193.442 206.587 190.247 207.616 187 209.906C185.893 210.687 184.869 211.584 183.927 212.598C182.984 213.613 182.247 214.603 181.713 215.569L184.807 219.408C185.282 218.41 185.939 217.422 186.777 216.445C187.615 215.465 188.502 214.647 189.437 213.988C191.184 212.756 192.88 212.159 194.526 212.195C196.172 212.231 197.653 213 198.97 214.502L184.101 224.988C184.214 225.461 184.522 226.054 185.025 226.767C187.037 229.621 189.472 231.218 192.329 231.561C195.185 231.902 198.175 230.973 201.299 228.77C204.471 226.532 206.359 223.92 206.961 220.936C207.562 217.953 206.797 214.947 204.664 211.922C202.426 208.749 199.733 207.048 196.588 206.818ZM193.898 226.227C192.444 226.019 191.139 225.199 189.981 223.769L200.011 215.978C201.057 217.671 201.432 219.311 201.135 220.902C200.839 222.492 199.928 223.824 198.403 224.9C196.854 225.993 195.352 226.435 193.898 226.227Z" fill="#202020"/>
<g filter="url(#filter0_d_184_2004)">
<path fill-rule="evenodd" clip-rule="evenodd" d="M132.847 130.364L157.605 107.985C158.528 107.15 159.805 106.826 161.015 107.12L176.496 110.88C178.044 111.256 178.45 113.268 177.172 114.219L153.058 132.156L170.266 136.124C171.91 136.503 172.262 138.687 170.82 139.564L139.875 158.379C138.218 159.387 136.304 157.53 137.262 155.843L146.08 140.308L133.221 133.418C132.073 132.803 131.882 131.237 132.847 130.364ZM147.887 139.785C148.028 140.272 147.966 140.795 147.716 141.236L138.898 156.772L169.843 137.957L152.636 133.989C151.921 133.824 151.368 133.259 151.217 132.541C151.067 131.824 151.347 131.084 151.936 130.647L176.049 112.71L176.05 112.708L160.571 108.948C159.966 108.801 159.328 108.963 158.866 109.38L134.109 131.76L146.969 138.65C147.415 138.889 147.747 139.298 147.887 139.785Z" fill="#202020"/>
<path d="M63.2972 129.364H59.6855V121.177H63.2972V115.881C63.2972 111.848 65.9462 109.139 69.9787 109.139H84.3655V109.078H93.1536V151.275H84.3655V117.867H73.8917C72.2665 117.867 72.086 118.77 72.086 120.034V121.177H79.1883V129.364H72.086V151.275H63.2972V129.364Z" fill="#202020"/>
<path fill-rule="evenodd" clip-rule="evenodd" d="M108.383 151.877C102.845 151.877 98.6919 147.904 98.3912 143.269C98.03 138.634 101.28 133.879 107.24 133.397L119.218 132.314L119.158 131.832C119.037 129.966 116.69 129.124 113.62 128.943C109.527 128.763 103.868 129.786 102.003 130.689L99.956 123.706C103.146 121.96 108.564 120.576 113.018 120.576C122.589 120.576 128.067 124.308 128.067 132.795V151.275H119.278V147.483C116.75 149.77 113.5 151.877 108.383 151.877ZM110.911 139.296C107.781 139.718 106.577 140.801 106.577 142.126C106.577 143.51 107.902 144.713 110.43 144.713C115.125 144.713 119.098 140.921 119.278 139.356V138.153L110.911 139.296Z" fill="#202020"/>
<path d="M182.662 151.275V109.139H191.451V125.271C191.692 124.549 194.1 120.576 199.878 120.576C205.356 120.576 211.015 124.127 211.015 132.735V151.275H202.226V135.625C202.226 131.411 200.962 128.642 196.928 128.642C192.474 128.642 191.451 131.892 191.451 135.143V151.275H182.662Z" fill="#202020"/>
</g>
</g>
<defs>
<filter id="filter0_d_184_2004" x="46.786" y="96.548" width="177.128" height="77.4495" filterUnits="userSpaceOnUse" color-interpolation-filters="sRGB">
<feFlood flood-opacity="0" result="BackgroundImageFix"/>
<feColorMatrix in="SourceAlpha" type="matrix" values="0 0 0 0 0 0 0 0 0 0 0 0 0 0 0 0 0 0 127 0" result="hardAlpha"/>
<feOffset dy="2.43388"/>
<feGaussianBlur stdDeviation="6.44977"/>
<feComposite in2="hardAlpha" operator="out"/>
<feColorMatrix type="matrix" values="0 0 0 0 0.988235 0 0 0 0 1 0 0 0 0 0.356863 0 0 0 0.6 0"/>
<feBlend mode="normal" in2="BackgroundImageFix" result="effect1_dropShadow_184_2004"/>
<feBlend mode="normal" in="SourceGraphic" in2="effect1_dropShadow_184_2004" result="shape"/>
</filter>
<clipPath id="clip0_184_2004">
<rect width="270" height="270" fill="white"/>
</clipPath>
</defs>
</svg>
