<svg width="595" height="612" viewBox="0 0 595 612" fill="none" xmlns="http://www.w3.org/2000/svg">
<path d="M242.768 477.225L245.913 494.241C246.434 497.085 246.497 500.008 246.071 502.884L240.398 541.183H249.878C249.878 541.183 258.647 502.141 265.678 491.05C272.52 480.258 303.188 456.306 303.188 456.306L282.916 446.257L260.607 465.675C257.131 468.709 252.201 466.765 247.919 468.487C245.549 469.42 242.768 477.225 242.768 477.225Z" fill="#FF598A"/>
<path d="M283.04 480.985C282.819 480.985 282.613 480.922 282.439 480.78C282.108 480.511 281.965 480.069 282.108 479.674L294.131 445.925C293.847 445.578 293.563 445.04 293.389 444.25C292.52 440.3 294.953 431.136 311.48 409.901C333.268 381.888 358.248 348.85 363.809 341.487C342.527 340.602 169.58 333.319 158.473 328.436C155.613 327.172 152.295 326.951 149.072 326.73C144.395 326.414 139.56 326.082 136.7 322.338C133.651 318.34 133.287 311.056 135.594 299.396C137.806 288.225 131.771 274.859 131.723 274.732C131.581 274.416 131.613 274.069 131.802 273.784C131.992 273.5 132.308 273.326 132.655 273.342C133.287 273.358 196.645 274.732 262.721 278.177C351.58 282.806 402.82 288.794 415.017 295.983C429.3 304.405 433.029 311.578 434.815 317.471C436.126 321.816 437.943 330.822 435.526 342.198C433.077 353.669 427.041 364.271 417.592 373.735C366.574 424.753 284.43 480.29 283.609 480.843C283.419 480.922 283.229 480.985 283.04 480.985ZM295.759 444.788C295.98 444.882 296.122 445.025 296.233 445.262C296.343 445.499 296.296 445.736 296.217 445.988L284.999 477.478C299.172 467.745 370.335 418.18 416.186 372.313C425.366 363.133 431.228 352.847 433.582 341.756C435.921 330.822 434.167 322.18 432.919 318.008C431.26 312.478 427.72 305.716 414.022 297.658C386.672 281.542 155.265 275.807 134.141 275.333C135.689 279.188 139.481 290.058 137.553 299.775C135.389 310.693 135.642 317.677 138.28 321.137C140.603 324.17 144.6 324.439 149.23 324.755C152.611 324.992 156.103 325.229 159.278 326.619C170.528 331.565 363.825 339.512 365.784 339.591C366.148 339.607 366.48 339.828 366.637 340.16C366.796 340.492 366.748 340.887 366.527 341.171C366.243 341.55 337.629 379.534 313.044 411.118C307.356 418.433 294.226 436.24 295.269 443.539C295.38 444.377 295.68 444.709 295.759 444.788Z" fill="#5D4FFF"/>
<path d="M308.889 70.754L297.118 50.293C297.118 50.293 294.605 37.2264 290.039 32.9762C291.035 45.5056 283.024 61.037 275.93 69.6006C266.102 81.4822 252.167 89.4454 237.267 93.585C234.913 103.823 226.539 137.762 226.539 137.762L248.533 169.472C248.533 169.472 268.994 147.479 269.499 137.24C270.005 127.018 274.618 97.3454 274.618 97.3454C274.618 97.3454 281.776 98.3724 287.922 97.3454C294.052 96.3184 300.704 95.3072 302.758 91.7206C304.812 88.134 301.731 73.8192 301.731 73.8192L308.889 70.754Z" fill="#FF598A"/>
<path d="M131.629 273.91C131.629 273.91 124.172 296.52 122.702 308.259C118.42 342.403 133.857 349.324 145.012 353.669C156.167 358.014 340.253 353.669 340.253 353.669C340.253 353.669 315.873 381.461 295.08 415.857C274.556 449.812 271.791 454.552 271.791 454.552L283.246 479.816C283.246 479.816 374.096 403.217 392.329 379.344C417.483 346.385 415.603 333.539 410.373 322.685C406.154 313.916 399.044 312.62 383.529 307.28C358.328 298.622 131.629 273.91 131.629 273.91Z" fill="#5D4FFF"/>
<path d="M296.977 80.0759L306.646 78.5433L305.445 82.2721C304.134 83.8521 301.811 84.1365 300.184 82.8883L296.977 80.0759Z" fill="#FFAAC0"/>
<path d="M239.023 228.312C237.838 230.682 221.232 284.307 221.232 284.307L132.42 274.1L140.32 261.46L239.023 228.312Z" fill="#FF598A"/>
<path d="M274.557 137.509C295.732 167.522 275.375 208.91 255.003 239.474L236.653 267.006H132.42C132.42 267.006 152.549 205.812 177.434 169.488C202.303 133.164 234.283 120.145 242.578 120.145C250.873 120.145 265.077 124.095 274.557 137.509Z" fill="#5D4FFF"/>
<path d="M469.576 253.576C459.1 248.172 438.102 239.198 426.536 236.607L396.927 246.087L306.646 252.407L295.065 222.624L258.725 252.328C258.725 252.328 267.636 278.714 274.54 284.37C279.928 288.794 287.97 293.455 301.78 290.295C306.788 289.158 400.877 256.341 400.877 256.341C407.703 261.618 419.663 254.698 424.451 251.49C428.985 255.109 433.22 257.178 439.556 260.686C441.926 262.266 450.616 263.356 451.406 262.661C448.972 260.512 446.476 258.506 443.98 256.546L458.247 261.871C460.759 262.803 463.587 262.013 465.231 259.896L455.624 254.113C457.631 254.698 459.653 255.203 461.691 255.551C464.14 255.978 469.576 255.551 469.576 253.576Z" fill="#FF598A"/>
<path d="M485.054 257.162C484.955 256.976 484.808 256.821 484.627 256.711L446.493 233.542C440.694 230.05 433.695 229.228 427.248 231.251L407.53 233.241L320.18 239.36C318.869 239.452 317.651 238.68 317.174 237.455L311.617 223.176C311.42 222.67 310.851 222.419 310.345 222.616C309.839 222.812 309.587 223.382 309.784 223.888L315.863 239.524C316.34 240.749 317.558 241.521 318.869 241.43L407.704 235.216L427.659 233.194L427.754 233.162C433.679 231.266 440.141 232.025 445.482 235.232L481.774 257.289C478.364 257.742 475.144 256.75 472.488 255.619C471.985 255.404 471.399 255.622 471.172 256.12C470.945 256.617 471.163 257.206 471.666 257.423C474.083 258.466 476.958 259.422 480.068 259.422C481.507 259.422 482.99 259.219 484.503 258.742C484.632 258.702 484.75 258.635 484.853 258.548C485.231 258.228 485.334 257.688 485.101 257.251L485.054 257.162Z" fill="#FF598A"/>
<path d="M268.789 267.069C268.741 267.069 268.71 267.069 268.678 267.069C267.082 267.037 265.771 266.311 264.855 264.983C258.882 256.199 229.083 203.822 220.109 173.501C217.676 165.27 215.622 144.098 225.434 134.823C230.806 129.751 238.753 129.056 249.086 132.753C254.363 134.633 259.467 138.173 264.27 143.229C269.263 148.49 272.375 153.799 273.797 156.485C277.905 164.29 300.373 233.526 301.337 236.464C301.432 236.765 301.384 237.096 301.195 237.365C300.294 238.597 278.901 267.069 268.789 267.069ZM222.005 172.948C230.505 201.673 259.83 254.081 266.482 263.877C267.035 264.683 267.746 265.078 268.71 265.094C268.741 265.094 268.773 265.094 268.805 265.094C276.246 265.094 293.026 244.933 299.314 236.607C297.26 230.271 275.915 164.732 272.059 157.417C265.202 144.398 255.359 137.098 248.423 134.618C238.848 131.189 231.564 131.742 226.792 136.261C218.15 144.429 219.398 164.195 222.005 172.948Z" fill="#FCFF5B"/>
<path d="M133.477 339.781C133.114 339.781 132.75 339.575 132.592 339.212C132.355 338.722 132.561 338.138 133.066 337.901C144 332.702 150.241 321.184 156.198 308.829L161.143 298.559C150.352 300.376 139.118 299.886 128.532 297.137C128.01 296.994 127.694 296.457 127.821 295.936C127.963 295.414 128.5 295.098 129.022 295.225C139.955 298.069 151.6 298.432 162.676 296.268C163.039 296.189 163.418 296.331 163.639 296.631C163.861 296.931 163.908 297.326 163.75 297.658L157.967 309.666C151.853 322.353 145.422 334.188 133.904 339.654C133.762 339.749 133.619 339.781 133.477 339.781Z" fill="#FCFF5B"/>
<path d="M300.088 222.402C299.804 222.402 299.519 222.276 299.33 222.055C298.982 221.644 299.03 221.012 299.456 220.664L310.706 211.279C299.535 189.807 288.365 168.335 277.194 146.862C276.941 146.373 277.131 145.788 277.621 145.535C278.11 145.282 278.695 145.472 278.948 145.962C290.245 167.671 301.542 189.38 312.823 211.089C313.044 211.5 312.934 212.006 312.586 212.306L300.72 222.197C300.531 222.339 300.309 222.402 300.088 222.402Z" fill="#FCFF5B"/>
<path d="M251.638 536.017C250.25 540.598 247.736 545.782 242.485 546.878C241.821 547.02 241.117 547.073 240.494 546.843C239.206 546.348 238.905 544.897 238.784 543.676C237.034 526.712 235.304 509.747 233.554 492.782C233.071 488.041 232.588 483.247 233.574 478.577C234.499 474.225 240.454 462.833 247.715 465.362C253.147 467.255 250.994 476.596 251.638 480.823C254.535 500.035 257.472 516.77 251.638 536.017Z" fill="#393939"/>
<path d="M206.063 102.022C199.363 112.94 191.669 123.7 180.877 130.604C170.086 137.509 155.55 139.847 144.443 133.448C129.069 124.6 124.914 102.717 109.351 94.2329C96.4738 87.2177 80.3736 91.8944 67.4334 98.7832C58.8382 103.349 49.8006 109.053 40.1784 107.615C34.7274 106.81 29.8294 103.713 25.8636 99.9051C12.2282 86.7911 9.14723 64.5763 17.142 47.4333C25.1526 30.2903 43.0066 18.6615 61.7928 16.4337C80.579 14.1901 99.8866 20.7471 114.723 32.5023C121.785 38.0955 127.9 44.7947 134.489 50.9409C143.036 58.9357 155.392 66.4091 165.725 60.9107C171.587 57.7981 174.731 51.3991 178.286 45.8059C184.906 35.3621 194.829 26.1665 207.011 24.1441C222.479 21.5845 237.773 32.4707 232.006 47.9863C225.023 66.8041 216.554 84.8951 206.063 102.022Z" fill="#393939"/>
<path d="M275.929 69.6164C283.023 61.0528 293.688 47.3858 292.709 34.8564C292.677 34.8406 284.809 13.9371 259.94 15.9121C243.997 17.1761 230.125 40.0861 230.125 40.0861C230.125 40.0861 230.125 40.0861 231.152 54.4009C232.179 68.7157 238.831 86.1115 237.804 91.2307C237.709 91.7205 237.519 92.5263 237.282 93.6007C252.182 89.4611 266.102 81.4822 275.929 69.6164Z" fill="#393939"/>
<path d="M148.549 80.4711C147.933 80.4711 147.317 80.4553 146.717 80.4079C141.834 80.1077 136.668 78.5277 130.948 75.5889C124.17 72.1129 117.976 67.5309 112.004 63.0911C109.223 61.0213 106.332 58.8883 103.44 56.8975C92.254 49.2187 82.853 45.5689 73.8944 45.4267C73.1834 45.4109 72.4408 45.3951 71.6508 45.3793C60.5434 45.0791 43.748 44.6051 31.9928 70.6277L29.1172 69.3321C41.7414 41.3977 60.5118 41.9191 71.7456 42.2351C72.504 42.2509 73.2466 42.2825 73.9418 42.2825C83.564 42.4247 93.5022 46.2483 105.226 54.3063C108.165 56.3287 111.072 58.4775 113.884 60.5631C119.762 64.9239 125.829 69.4269 132.386 72.7923C137.726 75.5257 142.466 76.9951 146.906 77.2637C151.378 77.5481 156.086 76.6633 160.905 74.6725C166.988 72.1445 172.644 63.7705 178.633 54.8909C187.086 42.3773 195.807 29.4529 208.226 28.0783C215.589 27.2725 223.173 30.6537 231.405 38.4431L229.24 40.7341C221.719 33.6241 214.957 30.5115 208.574 31.2067C197.608 32.4233 189.298 44.7315 181.255 56.6447C174.999 65.9193 169.074 74.6883 162.122 77.5797C157.508 79.5073 152.958 80.4711 148.549 80.4711Z" fill="#202020"/>
<path d="M148.438 114.662C146.716 114.662 145.01 114.473 143.335 114.078C133.539 111.787 127.14 103.713 120.946 95.9235C119.145 93.6483 117.265 91.2783 115.369 89.1611C114.042 87.6759 112.667 86.0643 111.214 84.3579C103.329 75.1307 93.5018 63.6441 83.216 62.0641C73.9256 60.6421 56.6246 57.9877 38.6916 95.5285L35.8477 94.1697C43.6371 77.8641 51.9163 67.4203 61.1593 62.2379C69.4858 57.5611 77.2279 57.9561 83.7059 58.9357C95.1609 60.6895 105.399 72.6659 113.631 82.2881C115.085 83.9787 116.443 85.5745 117.739 87.0281C119.698 89.2243 121.594 91.6259 123.443 93.9327C129.289 101.311 135.34 108.943 144.078 110.981C150.793 112.545 161.679 110.523 170.321 99.6365C176.167 92.2737 179.47 83.0465 182.661 74.1353C182.993 73.2031 183.325 72.2709 183.672 71.3387C187.148 61.7323 191.541 50.8619 199.836 43.2779C207.704 36.0731 220.976 32.0125 231.088 38.1903L229.445 40.8921C222.793 36.8315 211.228 37.1475 201.969 45.6163C194.211 52.7105 189.992 63.1701 186.643 72.4131C186.311 73.3453 185.979 74.2775 185.647 75.2097C182.361 84.3737 178.98 93.8379 172.802 101.611C166.213 109.891 157.097 114.662 148.438 114.662Z" fill="#202020"/>
<path d="M529.979 280.42H409.963C405.602 280.42 402.062 276.881 402.062 272.52C402.062 268.159 405.602 264.62 409.963 264.62H523.991L551.199 167.734C552.384 163.532 556.744 161.083 560.931 162.268C565.134 163.453 567.583 167.813 566.398 172L537.579 274.653C536.631 278.066 533.518 280.42 529.979 280.42Z" fill="#FCFF5B"/>
<path d="M169.17 594.271C160.069 594.271 151.506 588.71 148.156 579.735C143.859 568.186 149.799 555.261 161.412 550.948C167.021 548.862 173.12 549.068 178.555 551.532C184.022 554.013 188.178 558.453 190.263 564.062C194.561 575.612 188.62 588.536 177.007 592.849C174.432 593.813 171.777 594.271 169.17 594.271ZM169.281 565.31C168.491 565.31 167.685 565.452 166.911 565.737C163.466 567.016 161.681 570.824 162.945 574.221C164.209 577.618 168.048 579.325 171.493 578.045C174.937 576.765 176.723 572.957 175.459 569.56C174.858 567.933 173.642 566.621 172.03 565.895C171.161 565.515 170.229 565.31 169.281 565.31Z" fill="#FCFF5B"/>
<path d="M267.873 594.271C258.773 594.271 250.209 588.71 246.859 579.735C242.562 568.186 248.503 555.261 260.116 550.948C265.725 548.862 271.823 549.068 277.259 551.532C282.725 554.013 286.881 558.453 288.966 564.062C293.264 575.611 287.323 588.536 275.71 592.849C273.135 593.813 270.48 594.271 267.873 594.271ZM267.984 565.31C267.194 565.31 266.388 565.452 265.614 565.736C262.17 567.016 260.384 570.824 261.648 574.221C262.912 577.618 266.752 579.325 270.196 578.045C273.64 576.765 275.426 572.957 274.162 569.56C273.561 567.933 272.345 566.621 270.733 565.894C269.864 565.515 268.932 565.31 267.984 565.31Z" fill="#FCFF5B"/>
<path d="M219.084 466.528C214.723 466.528 211.184 462.989 211.184 458.628V389.124L172.363 406.473C168.381 408.242 163.705 406.457 161.935 402.475C160.15 398.494 161.935 393.817 165.916 392.047L215.86 369.738C218.309 368.647 221.138 368.869 223.381 370.322C225.625 371.776 226.984 374.272 226.984 376.942V458.628C226.968 462.989 223.444 466.528 219.084 466.528Z" fill="#FCFF5B"/>
<path d="M261.316 557.963H176.834C172.473 557.963 168.934 554.424 168.934 550.063C168.934 545.702 172.473 542.163 176.834 542.163H261.316C265.677 542.163 269.216 545.702 269.216 550.063C269.216 554.424 265.677 557.963 261.316 557.963Z" fill="#FCFF5B"/>
<path d="M240.587 542.368H197.942C197.389 542.368 196.963 541.926 196.963 541.389V456.511C196.963 455.958 197.405 455.531 197.942 455.531H240.587C241.14 455.531 241.566 455.974 241.566 456.511V541.389C241.582 541.926 241.14 542.368 240.587 542.368ZM198.938 540.393H239.607V457.491H198.938V540.393Z" fill="#FCFF5B"/>
<path d="M308.89 376.753H154.334C125.926 376.753 102.811 353.637 102.811 325.229V169.093C102.811 164.733 106.35 161.193 110.711 161.193C115.071 161.193 118.611 164.733 118.611 169.093V325.229C118.611 344.932 134.648 360.969 154.35 360.969H308.906C313.267 360.969 316.806 364.508 316.806 368.869C316.806 373.229 313.251 376.753 308.89 376.753Z" fill="#FCFF5B"/>
<path d="M288.759 84.6581C280.748 84.6581 272.643 82.0827 266.165 77.4059C265.723 77.0899 265.628 76.4737 265.944 76.0313C266.26 75.5889 266.876 75.4941 267.318 75.8101C274.128 80.7239 282.85 83.2045 291.24 82.6041C291.777 82.5567 292.251 82.9675 292.298 83.5205C292.33 84.0577 291.935 84.5317 291.382 84.5791C290.513 84.6265 289.628 84.6581 288.759 84.6581Z" fill="#202020"/>
<path d="M295.081 83.805C295.081 85.7642 293.485 87.36 291.526 87.36C289.567 87.36 287.971 85.7642 287.971 83.805C287.971 81.8458 289.567 80.25 291.526 80.25C293.485 80.25 295.081 81.8458 295.081 83.805Z" fill="#202020"/>
<path d="M259.262 59.0937C258.519 45.6005 258.014 36.6893 259.546 22.4377C259.562 22.2797 259.578 22.0901 259.609 21.8689C259.878 19.1829 260.415 13.5739 263.164 10.8247C264.902 9.08669 267.257 8.67589 269.295 9.75029C271.744 11.0301 273.087 14.0005 272.55 16.9709L269.437 16.4021C269.769 14.6009 268.868 13.0999 267.825 12.5469C267.004 12.1203 266.166 12.2941 265.392 13.0525C263.433 14.9959 262.943 20.2099 262.754 22.1691C262.738 22.3903 262.706 22.5957 262.69 22.7695C261.189 36.7525 261.679 45.5689 262.406 58.9041L259.262 59.0937Z" fill="#FCFF5B"/>
<path d="M278.034 67.2464C279.014 74.704 273.768 81.5454 266.31 82.525C258.853 83.5046 252.011 78.259 251.032 70.8014C250.052 63.3438 255.298 56.5024 262.755 55.5228C270.213 54.5432 277.054 59.7888 278.034 67.2464Z" fill="#202020"/>
<path d="M269.738 65.3031C270.418 70.4065 266.815 75.0991 261.712 75.7627C256.608 76.4421 251.916 72.8397 251.252 67.7363C250.573 62.6329 254.175 57.9403 259.279 57.2767C264.382 56.5973 269.059 60.1839 269.738 65.3031Z" fill="#FCFF5B"/>
<path d="M391.732 284.392H570.299V588.912L340.713 594.493" stroke="#FCFF5B" stroke-width="5.58022" stroke-linejoin="round"/>
</svg>
