<svg width="270" height="270" viewBox="0 0 270 270" fill="none" xmlns="http://www.w3.org/2000/svg">
<g clip-path="url(#clip0_126_334)">
<path d="M66.0528 72.8375L42.6093 52.1057L38.6568 56.6851L62.0997 77.4166L66.0528 72.8375Z" fill="#FCFF5B"/>
<path fill-rule="evenodd" clip-rule="evenodd" d="M48.8742 82.617L48.7195 82.8922C49.8046 83.6035 50.7571 84.5502 51.5767 85.7346C52.3973 86.9186 52.8614 88.308 52.9677 89.9036C53.075 91.4989 52.6285 93.1891 51.6288 94.9744C50.3935 97.1794 48.9282 98.5936 47.2348 99.2141C45.541 99.8351 43.8023 99.6455 42.017 98.6459C39.995 97.5131 38.9166 95.9441 38.7821 93.9367C38.6474 91.9284 39.2857 89.6649 40.6975 87.1439C41.9332 84.9383 43.3471 82.8147 44.9377 80.7739L44.2289 80.3766C42.7968 79.6091 41.4767 79.4554 40.2698 79.9176C39.0619 80.38 38.0092 81.412 37.1124 83.0137C35.7735 85.4035 34.9615 88.0528 34.6774 90.9639L30.0405 88.9876C30.147 87.564 30.4534 86.079 30.9573 84.533C31.4614 82.988 32.1165 81.4919 32.9259 80.0473C34.7945 76.7132 36.9095 74.6466 39.2711 73.8485C41.6325 73.0494 44.1135 73.3783 46.7134 74.834L58.4903 81.4312L56.4384 85.0937L48.8742 82.617ZM43.9145 92.6712C44.807 93.1714 45.6847 93.2224 46.5454 92.8256C47.4062 92.4272 48.1593 91.6518 48.8065 90.4961C49.6453 88.9988 49.944 87.4502 49.7027 85.8487C49.461 84.2479 48.4845 82.8819 46.7721 81.7496L46.4572 81.5728C45.2697 83.3229 44.3378 84.8019 43.6616 86.0097C42.7494 87.6378 42.3143 89.0146 42.3561 90.1424C42.3972 91.2699 42.917 92.1127 43.9145 92.6712Z" fill="#FCFF5B"/>
<path d="M30.3065 100.711C29.6111 101.637 28.9968 102.681 28.4655 103.843C27.9332 105.006 27.5381 106.175 27.2805 107.351C26.7593 109.731 26.9252 111.717 27.7787 113.306C28.6322 114.895 30.1758 115.934 32.4109 116.423C34.6449 116.913 36.4818 116.615 37.9213 115.528C39.3605 114.442 40.3417 112.707 40.8633 110.326C41.1339 109.091 41.2696 107.843 41.2692 106.58C41.2684 105.315 41.1421 104.133 40.8905 103.03L45.8089 103.784C46.0373 104.851 46.1353 106.059 46.1019 107.407C46.0684 108.755 45.8904 110.164 45.5684 111.635C44.6799 115.692 43.0021 118.706 40.5362 120.677C38.0711 122.647 34.9282 123.215 31.1056 122.377C27.2841 121.539 24.6652 119.711 23.2494 116.889C21.8345 114.068 21.5704 110.629 22.4599 106.571C23.1039 103.632 24.1403 101.224 25.5675 99.3489L30.3065 100.711Z" fill="#FCFF5B"/>
<path d="M53.1851 42.1632L74.3596 64.6754L69.9644 68.8323L48.7898 46.3201L53.1851 42.1632Z" fill="#FCFF5B"/>
<path fill-rule="evenodd" clip-rule="evenodd" d="M26.4992 143.414C26.0025 143.461 25.5448 143.703 25.2267 144.087C24.9086 144.472 24.7563 144.966 24.8031 145.463C28.8156 188 57.5664 226.128 100.852 239.979C115.579 244.691 130.583 246.14 145.07 244.721C146.104 244.619 146.86 243.699 146.759 242.665L146.066 235.59C146.017 235.093 145.773 234.636 145.388 234.32C145.003 234.003 144.507 233.852 144.01 233.901C130.97 235.178 117.455 233.877 104.165 229.624C65.1715 217.147 39.2449 182.799 35.6267 144.442C35.5291 143.408 34.6116 142.649 33.5773 142.746L26.4992 143.414ZM101.425 238.187C59.518 224.778 31.4678 188.215 26.8689 147.158C26.7991 146.535 26.7348 145.911 26.6759 145.286L33.7539 144.619C37.4403 183.699 63.8558 218.701 103.592 231.416C117.13 235.748 130.903 237.075 144.194 235.773L144.887 242.849C144.263 242.91 143.639 242.965 143.013 243.016C129.359 244.112 115.269 242.617 101.425 238.187Z" fill="#FCFF5B"/>
<path fill-rule="evenodd" clip-rule="evenodd" d="M86.9497 47.4339C86.4736 47.2849 86.0763 46.9528 85.845 46.5107L82.5495 40.2111C82.0679 39.2906 82.4238 38.154 83.3443 37.6724C121.203 17.8672 168.838 21.2101 204.032 49.9661C216.005 59.7496 225.393 71.5434 232.095 84.4659C232.573 85.3882 232.213 86.5235 231.291 87.0017L224.979 90.2746C224.536 90.5043 224.02 90.5486 223.545 90.3978C223.069 90.2471 222.673 89.9135 222.443 89.4706C216.412 77.8387 207.958 67.2138 197.153 58.3848C165.449 32.48 122.522 29.4467 88.3837 47.3055C87.9417 47.5368 87.4258 47.5829 86.9497 47.4339ZM87.5123 45.6385C122.294 27.4431 166.036 30.5303 198.343 56.9282C209.35 65.9223 217.966 76.7495 224.113 88.6047L230.425 85.3318C230.136 84.7756 229.843 84.2215 229.544 83.6696C223.026 71.621 214.097 60.6198 202.841 51.4228C168.769 23.5825 122.827 19.9746 85.8906 38.4818C85.3306 38.7625 84.772 39.0484 84.2162 39.3392L87.5123 45.6385Z" fill="#FCFF5B"/>
<path d="M243.755 127.786C244.054 126.667 244.233 125.469 244.291 124.192C244.35 122.916 244.28 121.684 244.079 120.497C243.672 118.093 242.776 116.314 241.39 115.16C240.004 114.006 238.184 113.618 235.929 114C233.673 114.381 232.081 115.345 231.152 116.891C230.223 118.437 229.962 120.412 230.369 122.816C230.58 124.062 230.921 125.271 231.394 126.442C231.867 127.614 232.426 128.664 233.072 129.593L228.228 130.732C227.618 129.828 227.075 128.745 226.602 127.482C226.129 126.219 225.766 124.845 225.516 123.362C224.823 119.267 225.252 115.843 226.802 113.093C228.351 110.344 231.055 108.642 234.913 107.991C238.77 107.338 241.883 108.056 244.251 110.143C246.618 112.229 248.149 115.322 248.841 119.417C249.343 122.384 249.282 125.004 248.659 127.277L243.755 127.786Z" fill="#FCFF5B"/>
<path fill-rule="evenodd" clip-rule="evenodd" d="M229.657 137.308C227.378 139.489 226.001 142.551 225.525 146.496C225.364 147.84 225.344 149.202 225.466 150.581C225.587 151.96 225.828 153.171 226.188 154.214L231.111 154.49C230.689 153.468 230.395 152.319 230.231 151.042C230.065 149.763 230.052 148.557 230.189 147.421C230.445 145.299 231.138 143.64 232.267 142.442C233.397 141.244 234.96 140.66 236.957 140.689L234.781 158.752C235.208 158.985 235.854 159.154 236.72 159.258C240.187 159.676 243.004 158.939 245.172 157.048C247.339 155.156 248.653 152.313 249.11 148.519C249.574 144.664 248.9 141.513 247.087 139.066C245.276 136.621 242.532 135.176 238.857 134.733C235.002 134.269 231.935 135.127 229.657 137.308ZM242.264 152.309C241.135 153.249 239.652 153.669 237.815 153.57L238.75 140.904C240.708 141.261 242.177 142.082 243.16 143.368C244.141 144.654 244.52 146.222 244.297 148.076C244.071 149.958 243.393 151.369 242.264 152.309Z" fill="#FCFF5B"/>
<path d="M242.8 173.888L234.111 171.888L234.02 172.093C236.442 173.39 238.147 175.12 239.135 177.281C240.123 179.444 240.035 181.846 238.871 184.49C237.731 187.079 236.034 188.766 233.782 189.55C231.529 190.333 228.97 190.094 226.106 188.833L214.165 183.575L216.603 178.038L228.007 183.06C229.632 183.776 231.089 183.883 232.379 183.382C233.668 182.881 234.677 181.805 235.404 180.152C236.265 178.196 236.23 176.355 235.296 174.629C234.364 172.902 232.836 171.572 230.714 170.638L221.625 166.635L224.081 161.058L244.492 170.046L242.8 173.888Z" fill="#FCFF5B"/>
<path d="M203.255 196.132C201.859 197.906 200.924 199.41 200.449 200.645L204.475 203.413C205.086 202.054 205.772 200.89 206.535 199.921C208.434 197.508 210.496 197.178 212.719 198.927L219.813 204.512L214.424 211.359L218.184 214.319L224.466 206.337L228.249 212.188L232.577 206.69L226.924 203.216L229.772 199.597L226.013 196.638L223.582 199.724L216.382 194.055C213.945 192.137 211.625 191.411 209.42 191.878C207.214 192.344 205.16 193.762 203.255 196.132Z" fill="#FCFF5B"/>
<path d="M180.603 240.076L175.405 232.291L175.199 232.38C176.226 235.052 176.618 237.448 176.374 239.572C176.13 241.695 174.986 243.2 172.942 244.087C171.894 244.541 170.8 244.819 169.662 244.919L167.558 239.385C169.059 239.291 170.376 238.999 171.508 238.508C173.385 237.694 174.425 236.366 174.627 234.523C174.828 232.681 174.313 230.337 173.08 227.493L169.991 220.369L175.541 217.963L184.413 238.424L180.603 240.076Z" fill="#FCFF5B"/>
<path fill-rule="evenodd" clip-rule="evenodd" d="M197.47 206.053C194.321 205.861 191.138 206.929 187.92 209.259C186.823 210.053 185.81 210.963 184.881 211.989C183.951 213.015 183.226 214.014 182.704 214.986L185.845 218.787C186.308 217.784 186.952 216.787 187.778 215.8C188.604 214.81 189.481 213.981 190.408 213.311C192.139 212.057 193.828 211.439 195.474 211.455C197.12 211.471 198.611 212.221 199.946 213.707L185.208 224.376C185.327 224.848 185.642 225.436 186.154 226.143C188.201 228.972 190.655 230.538 193.516 230.846C196.376 231.152 199.355 230.187 202.451 227.945C205.596 225.668 207.451 223.033 208.016 220.041C208.581 217.051 207.779 214.056 205.608 211.057C203.331 207.912 200.618 206.244 197.47 206.053ZM195.019 225.493C193.563 225.303 192.247 224.5 191.072 223.084L201.005 215.17C202.073 216.849 202.467 218.485 202.19 220.08C201.913 221.673 201.019 223.017 199.507 224.111C197.972 225.223 196.476 225.684 195.019 225.493Z" fill="#FCFF5B"/>
<g filter="url(#filter0_d_126_334)">
<path fill-rule="evenodd" clip-rule="evenodd" d="M130.848 130.365L155.605 107.985C156.529 107.15 157.806 106.827 159.016 107.121L174.496 110.881C176.045 111.257 176.451 113.269 175.173 114.22L151.059 132.156L168.266 136.124C169.91 136.503 170.263 138.688 168.821 139.564L137.876 158.38C136.218 159.387 134.305 157.531 135.263 155.844L144.081 140.308L131.221 133.418C130.074 132.803 129.883 131.237 130.848 130.365ZM145.888 139.786C146.029 140.273 145.967 140.796 145.717 141.237L136.899 156.772L167.844 137.957L150.636 133.989C149.922 133.824 149.368 133.26 149.218 132.542C149.068 131.824 149.348 131.085 149.936 130.647L174.05 112.71L174.051 112.708L158.572 108.948C157.967 108.801 157.329 108.963 156.867 109.381L132.11 131.76L144.969 138.65C145.416 138.889 145.747 139.299 145.888 139.786Z" fill="#FCFF5B"/>
<path d="M61.2979 129.365H57.6863V121.178H61.2979V115.881C61.2979 111.848 63.9469 109.139 67.9795 109.139H82.3662V109.079H91.1543V151.275H82.3662V117.868H71.8925C70.2672 117.868 70.0867 118.771 70.0867 120.035V121.178H77.1891V129.365H70.0867V151.275H61.2979V129.365Z" fill="#FCFF5B"/>
<path fill-rule="evenodd" clip-rule="evenodd" d="M106.384 151.878C100.846 151.878 96.6927 147.905 96.3919 143.269C96.0308 138.635 99.2812 133.879 105.24 133.398L117.219 132.314L117.159 131.833C117.038 129.967 114.69 129.124 111.621 128.944C107.528 128.763 101.869 129.786 100.004 130.689L97.9567 123.707C101.147 121.961 106.564 120.576 111.019 120.576C120.59 120.576 126.068 124.308 126.068 132.796V151.275H117.279V147.483C114.751 149.77 111.5 151.878 106.384 151.878ZM108.912 139.297C105.782 139.718 104.578 140.802 104.578 142.126C104.578 143.51 105.902 144.714 108.43 144.714C113.126 144.714 117.098 140.922 117.279 139.357V138.153L108.912 139.297Z" fill="#FCFF5B"/>
<path d="M180.663 151.275V109.139H189.452V125.272C189.692 124.549 192.1 120.576 197.879 120.576C203.357 120.576 209.015 124.128 209.015 132.736V151.275H200.226V135.625C200.226 131.411 198.962 128.642 194.929 128.642C190.475 128.642 189.452 131.893 189.452 135.143V151.275H180.663Z" fill="#FCFF5B"/>
</g>
</g>
<defs>
<filter id="filter0_d_126_334" x="44.7867" y="96.5485" width="177.128" height="77.45" filterUnits="userSpaceOnUse" color-interpolation-filters="sRGB">
<feFlood flood-opacity="0" result="BackgroundImageFix"/>
<feColorMatrix in="SourceAlpha" type="matrix" values="0 0 0 0 0 0 0 0 0 0 0 0 0 0 0 0 0 0 127 0" result="hardAlpha"/>
<feOffset dy="2.43388"/>
<feGaussianBlur stdDeviation="6.44977"/>
<feComposite in2="hardAlpha" operator="out"/>
<feColorMatrix type="matrix" values="0 0 0 0 0.988235 0 0 0 0 1 0 0 0 0 0.356863 0 0 0 0.6 0"/>
<feBlend mode="normal" in2="BackgroundImageFix" result="effect1_dropShadow_126_334"/>
<feBlend mode="normal" in="SourceGraphic" in2="effect1_dropShadow_126_334" result="shape"/>
</filter>
<clipPath id="clip0_126_334">
<rect width="270" height="270" fill="white"/>
</clipPath>
</defs>
</svg>
