<svg width="507" height="507" viewBox="0 0 507 507" fill="none" xmlns="http://www.w3.org/2000/svg">
<g clip-path="url(#clip0_121_205)">
<path d="M292.561 83.6453L305.27 26.2702L294.151 23.9473L281.442 81.3211L292.561 83.6453Z" fill="#202020"/>
<path fill-rule="evenodd" clip-rule="evenodd" d="M260.862 64.3338L260.269 64.3303C260.088 66.7598 259.401 69.186 258.202 71.6103C257.004 74.0359 255.144 76.0629 252.621 77.6899C250.098 79.3182 246.916 80.1235 243.074 80.1069C238.328 80.0851 234.671 78.966 232.111 76.7495C229.549 74.533 228.277 71.5049 228.294 67.6628C228.314 63.3107 229.909 60.1112 233.084 58.0631C236.259 56.0137 240.558 55.0016 245.984 55.0254C250.731 55.0472 255.506 55.4361 260.305 56.1909L260.313 54.665C260.27 51.6144 259.32 49.3063 257.463 47.7448C255.604 46.1819 252.95 45.3924 249.503 45.3776C244.36 45.354 239.269 46.432 234.23 48.6154L233.255 39.201C235.69 38.0798 238.407 37.2314 241.405 36.6516C244.402 36.0731 247.455 35.787 250.564 35.8015C257.741 35.8355 263.061 37.4279 266.521 40.58C269.983 43.7308 271.702 48.1051 271.677 53.7001L271.563 79.0477L263.68 79.0116L260.862 64.3338ZM239.834 65.3404C239.825 67.2615 240.54 68.7496 241.975 69.802C243.413 70.853 245.372 71.384 247.86 71.395C251.082 71.4096 253.898 70.4904 256.308 68.6363C258.717 66.7822 260.072 63.9349 260.373 60.0918L260.376 59.4136C256.421 59.0564 253.144 58.8723 250.545 58.8611C247.04 58.8449 244.383 59.3838 242.569 60.479C240.754 61.5729 239.843 63.1937 239.834 65.3404Z" fill="#202020"/>
<path d="M214.243 50.3094C212.088 50.0105 209.815 49.9517 207.422 50.1371C205.028 50.3211 202.749 50.7363 200.583 51.3838C196.198 52.6949 193.088 54.775 191.256 57.623C189.423 60.4711 189.121 63.9524 190.353 68.0684C191.583 72.1831 193.743 74.9291 196.839 76.3039C199.933 77.6786 203.675 77.7112 208.061 76.4002C210.335 75.7207 212.508 74.8076 214.583 73.6566C216.659 72.5043 218.486 71.2209 220.068 69.8037L223.307 78.5679C221.762 79.9144 219.867 81.175 217.623 82.3471C215.379 83.5192 212.903 84.5095 210.194 85.3192C202.722 87.5531 196.245 87.5413 190.763 85.2852C185.283 83.0305 181.489 78.3855 179.386 71.3448C177.283 64.3054 177.902 58.3399 181.248 53.4457C184.593 48.5543 190.001 44.9896 197.475 42.7571C202.889 41.1389 207.786 40.6496 212.166 41.2863L214.243 50.3094Z" fill="#202020"/>
<path d="M331.226 34.5889L313.528 89.8584L302.7 86.4238L320.398 31.1543L331.226 34.5889Z" fill="#202020"/>
<path fill-rule="evenodd" clip-rule="evenodd" d="M140.643 82.9286C140.113 82.1555 139.299 81.6243 138.378 81.4517C137.457 81.2792 136.506 81.4795 135.733 82.0086C69.5232 127.32 33.0746 209.247 49.7294 292.947C55.3959 321.423 66.6743 347.385 82.1928 369.887C83.3003 371.493 85.5 371.897 87.1059 370.789L98.0959 363.21C98.8671 362.678 99.3954 361.862 99.5647 360.94C99.7339 360.019 99.5302 359.068 98.9983 358.297C85.0296 338.042 74.8651 314.661 69.7514 288.962C54.7479 213.562 87.5593 139.714 147.262 98.8556C148.872 97.7539 149.284 95.5557 148.182 93.9458L140.643 82.9286ZM53.1937 292.257C37.0692 211.223 71.585 131.871 134.83 86.9439C135.789 86.2625 136.755 85.589 137.728 84.9235L145.267 95.9407C84.4384 137.57 50.9979 212.816 66.2871 289.652C71.4964 315.831 81.8537 339.659 96.0906 360.302L85.1006 367.882C84.4327 366.913 83.7725 365.938 83.1207 364.956C68.8897 343.528 58.5205 319.027 53.1937 292.257Z" fill="#202020"/>
<path fill-rule="evenodd" clip-rule="evenodd" d="M353.306 94.8413C353.117 93.9236 353.301 92.9687 353.816 92.1865L361.163 81.0395C362.236 79.4106 364.427 78.9604 366.056 80.0339C433.046 124.183 470.918 205.462 455.726 289.439C450.557 318.01 439.733 344.165 424.61 366.934C423.531 368.559 421.338 369.002 419.713 367.922L408.593 360.536C407.812 360.018 407.27 359.21 407.085 358.292C406.899 357.374 407.087 356.42 407.605 355.639C421.218 335.144 430.973 311.589 435.638 285.805C449.323 210.155 415.229 136.89 354.822 97.0795C354.04 96.564 353.494 95.7589 353.306 94.8413ZM356.767 94.1309C418.312 134.692 453.06 209.343 439.113 286.434C434.362 312.7 424.422 336.705 410.547 357.594L421.668 364.98C422.319 364 422.961 363.013 423.596 362.021C437.451 340.348 447.391 315.669 452.25 288.811C466.959 207.508 431.064 128.77 367.044 84.9527C366.074 84.2884 365.095 83.6314 364.112 82.9832L356.767 94.1309Z" fill="#202020"/>
<path d="M364.076 425.52C366.186 424.992 368.317 424.194 370.467 423.129C372.617 422.063 374.577 420.827 376.343 419.416C379.92 416.56 382.026 413.469 382.661 410.142C383.295 406.815 382.274 403.473 379.594 400.117C376.915 396.758 373.883 395.021 370.498 394.903C367.113 394.783 363.631 396.155 360.054 399.01C358.199 400.491 356.524 402.151 355.031 403.994C353.537 405.838 352.322 407.711 351.384 409.618L345.104 402.699C346.033 400.874 347.318 398.998 348.96 397.071C350.605 395.144 352.532 393.297 354.739 391.536C360.835 386.671 366.848 384.259 372.775 384.301C378.701 384.343 383.957 387.235 388.539 392.978C393.122 398.719 394.777 404.484 393.505 410.273C392.233 416.061 388.547 421.39 382.451 426.254C378.035 429.779 373.677 432.064 369.377 433.11L364.076 425.52Z" fill="#202020"/>
<path fill-rule="evenodd" clip-rule="evenodd" d="M335.604 411.033C329.948 409.275 323.665 409.801 316.754 412.611C314.398 413.57 312.144 414.777 309.99 416.231C307.836 417.687 306.066 419.185 304.68 420.724L308.709 429.061C310.002 427.438 311.623 425.908 313.571 424.477C315.52 423.042 317.489 421.922 319.479 421.113C323.197 419.601 326.553 419.229 329.548 419.993C332.544 420.758 334.927 422.794 336.698 426.1L305.049 438.969C305.055 439.882 305.366 441.096 305.984 442.615C308.453 448.689 312.228 452.643 317.308 454.484C322.388 456.321 328.252 455.891 334.9 453.188C341.654 450.44 346.215 446.465 348.584 441.261C350.95 436.059 350.827 430.238 348.208 423.798C345.462 417.045 341.259 412.789 335.604 411.033ZM322.443 445.393C319.871 444.395 317.832 442.342 316.322 439.235L337.975 429.241C339.171 432.782 339.16 435.942 337.942 438.726C336.724 441.508 334.493 443.559 331.246 444.879C327.949 446.22 325.015 446.391 322.443 445.393Z" fill="#202020"/>
<path d="M287.49 465.916L282.866 449.825L282.445 449.864C282.521 455.02 281.231 459.396 278.581 462.986C275.929 466.578 271.903 468.621 266.501 469.115C261.211 469.599 256.895 468.348 253.557 465.363C250.22 462.375 248.283 457.956 247.749 452.104L245.514 427.706L256.827 426.67L258.96 449.97C259.264 453.291 260.414 455.781 262.411 457.444C264.408 459.106 267.092 459.783 270.47 459.472C274.466 459.107 277.457 457.372 279.443 454.267C281.43 451.164 282.224 447.443 281.826 443.109L280.127 424.537L291.522 423.495L295.34 465.198L287.49 465.916Z" fill="#202020"/>
<path d="M214.959 421.218C210.775 420.54 207.454 420.373 204.993 420.718L204.112 429.85C206.899 429.616 209.437 429.683 211.723 430.054C217.414 430.976 219.833 434.062 218.983 439.306L216.268 456.04L200.118 453.422L198.679 462.292L217.507 465.345L211.341 476.884L224.311 478.987L224.87 466.54L233.407 467.924L234.845 459.055L227.564 457.873L230.319 440.886C231.253 435.139 230.332 430.668 227.557 427.471C224.785 424.272 220.585 422.189 214.959 421.218Z" fill="#202020"/>
<path d="M122.166 424.016L130.221 408.393L129.886 408.136C126.434 412.255 122.854 415.079 119.144 416.612C115.435 418.144 111.922 417.635 108.606 415.086C106.905 413.777 105.453 412.233 104.253 410.456L111.426 401.963C112.948 404.343 114.626 406.24 116.463 407.651C119.508 409.994 122.636 410.493 125.846 409.147C129.056 407.801 132.436 404.82 135.984 400.207L144.872 388.648L153.877 395.574L128.348 428.77L122.166 424.016Z" fill="#202020"/>
<path fill-rule="evenodd" clip-rule="evenodd" d="M193.4 420.747C190.849 415.401 186.197 411.146 179.441 407.981C177.137 406.903 174.721 406.068 172.19 405.475C169.659 404.882 167.358 404.6 165.286 404.628L161.903 413.247C163.972 413.093 166.195 413.245 168.569 413.703C170.946 414.159 173.105 414.844 175.051 415.755C178.685 417.458 181.237 419.669 182.71 422.387C184.183 425.105 184.307 428.237 183.082 431.782L152.144 417.288C151.478 417.913 150.797 418.966 150.102 420.45C147.32 426.387 146.981 431.844 149.079 436.823C151.181 441.799 155.478 445.812 161.977 448.857C168.58 451.949 174.596 452.597 180.025 450.802C185.45 449.007 189.64 444.963 192.588 438.668C195.681 432.066 195.951 426.091 193.4 420.747ZM159.24 434.42C158.226 431.854 158.348 428.963 159.604 425.744L181.644 434.853C179.857 438.135 177.53 440.273 174.659 441.269C171.79 442.264 168.769 442.019 165.595 440.532C162.371 439.023 160.254 436.985 159.24 434.42Z" fill="#202020"/>
<path fill-rule="evenodd" clip-rule="evenodd" d="M249.456 244.794L295.945 202.771C297.679 201.203 300.077 200.595 302.349 201.147L331.417 208.208C334.325 208.914 335.088 212.692 332.687 214.478L287.408 248.159L319.719 255.609C322.806 256.321 323.468 260.423 320.761 262.069L262.653 297.4C259.54 299.292 255.948 295.806 257.746 292.638L274.304 263.466L250.157 250.528C248.002 249.374 247.643 246.433 249.456 244.794ZM277.698 262.485C277.962 263.399 277.846 264.382 277.376 265.209L260.818 294.382L318.925 259.051L286.614 251.6C285.272 251.291 284.233 250.23 283.95 248.883C283.668 247.535 284.195 246.146 285.299 245.324L330.579 211.644L330.581 211.639L301.516 204.579C300.38 204.303 299.181 204.607 298.313 205.391L251.825 247.415L275.973 260.352C276.812 260.802 277.434 261.571 277.698 262.485Z" fill="#202020"/>
<path d="M118.856 242.916H112.074V227.544H118.856V217.598C118.856 210.024 123.83 204.938 131.403 204.938H158.418V204.824H174.92V284.06H158.418V221.328H138.75C135.698 221.328 135.359 223.023 135.359 225.397V227.544H148.696V242.916H135.359V284.06H118.856V242.916Z" fill="#202020"/>
<path fill-rule="evenodd" clip-rule="evenodd" d="M203.517 285.191C193.119 285.191 185.32 277.731 184.755 269.026C184.077 260.323 190.18 251.394 201.37 250.49L223.863 248.455L223.75 247.551C223.523 244.047 219.115 242.465 213.351 242.126C205.665 241.787 195.04 243.708 191.537 245.403L187.693 232.292C193.683 229.013 203.856 226.414 212.221 226.414C230.193 226.414 240.48 233.422 240.48 249.359V284.06H223.976V276.939C219.229 281.234 213.125 285.191 203.517 285.191ZM208.264 261.566C202.388 262.358 200.126 264.393 200.126 266.88C200.126 269.479 202.613 271.739 207.361 271.739C216.177 271.739 223.637 264.618 223.976 261.68V259.42L208.264 261.566Z" fill="#202020"/>
<path d="M342.998 284.06V204.938H359.501V235.231C359.952 233.874 364.474 226.414 375.325 226.414C385.611 226.414 396.236 233.083 396.236 249.247V284.06H379.733V254.672C379.733 246.76 377.359 241.56 369.786 241.56C361.422 241.56 359.501 247.663 359.501 253.767V284.06H342.998Z" fill="#202020"/>
</g>
<defs>
<clipPath id="clip0_121_205">
<rect width="507" height="507" fill="white"/>
</clipPath>
</defs>
</svg>
